<svg width="38" height="33" viewBox="0 0 38 33" fill="none" xmlns="http://www.w3.org/2000/svg">
<path d="M37.3487 23.5667C37.2215 23.1013 36.9626 22.6831 36.6034 22.3628C36.2442 22.0425 35.8001 21.8339 35.3252 21.7623V7.4717H36.5646C36.729 7.4717 36.8866 7.4061 37.0029 7.28933C37.1191 7.17256 37.1844 7.01419 37.1844 6.84906V0.622642C37.1844 0.278476 36.9069 0 36.5646 0H9.29609C8.95384 0 8.67635 0.278476 8.67635 0.622642V6.84906C8.67635 7.01419 8.74165 7.17256 8.85787 7.28933C8.97409 7.4061 9.13173 7.4717 9.29609 7.4717H10.5356V19.9245H9.91583C8.37763 19.9208 6.87114 20.3638 5.57766 21.2002V18.0566C5.57766 17.7124 5.30017 17.434 4.95792 17.434H0.61974C0.277488 17.434 0 17.7124 0 18.0566V32.3774C0 32.5425 0.0652938 32.7009 0.181518 32.8176C0.297741 32.9344 0.455374 33 0.61974 33H4.95792C5.12228 33 5.27991 32.9344 5.39614 32.8176C5.51236 32.7009 5.57766 32.5425 5.57766 32.3774V29.234C6.87136 30.0699 8.37772 30.5127 9.91583 30.5094H20.092C20.7969 30.5082 21.4988 30.4152 22.1799 30.2327L35.5978 26.6215C36.9181 26.2601 37.7003 24.8956 37.3487 23.5667V23.5667ZM9.91583 1.24528H35.9449V6.22642H9.91583V1.24528ZM11.7751 7.4717H34.0857V21.8693L26.893 23.8072C26.7468 23.457 26.5233 23.1449 26.2393 22.8944C25.9553 22.6439 25.6183 22.4615 25.2538 22.3612L16.9034 20.1112C16.4332 19.9867 15.949 19.924 15.4627 19.9245H11.7751V7.4717ZM4.33818 31.7547H1.23948V18.6792H4.33818V31.7547ZM35.2761 25.4186L21.8606 29.0297C21.2836 29.1845 20.6891 29.2633 20.0919 29.2642H9.91583C8.44024 29.2675 7.00396 28.7865 5.82555 27.8942L5.57766 27.7075V22.7264L5.82555 22.5394C7.00386 21.647 8.44024 21.166 9.91583 21.1698H15.4627C15.8415 21.1696 16.2188 21.2187 16.585 21.316L24.9327 23.5643C25.1739 23.6309 25.3896 23.7688 25.5519 23.96C25.7142 24.1511 25.8157 24.3868 25.8433 24.6366C25.85 24.6621 25.8581 24.6873 25.8681 24.7119C25.8608 24.7387 25.8553 24.7659 25.8517 24.7934C25.8524 24.8946 25.8387 24.9956 25.8109 25.0929C25.74 25.3569 25.5846 25.5901 25.3687 25.7565C25.1528 25.923 24.8884 26.0134 24.6162 26.0138C24.5072 26.0147 24.3987 26.0009 24.2933 25.9728L19.0255 24.5536C18.9194 24.5219 18.8068 24.5194 18.6993 24.5462C18.5919 24.573 18.4936 24.6283 18.4146 24.7062C18.3097 24.681 18.2001 24.6837 18.0967 24.7141C17.9932 24.7445 17.8994 24.8015 17.8246 24.8794C17.7498 24.9574 17.6965 25.0536 17.67 25.1586C17.6435 25.2636 17.6447 25.3737 17.6735 25.478C17.7023 25.5824 17.7577 25.6774 17.8343 25.7536C17.9108 25.8299 18.0058 25.8848 18.1099 25.9128C18.2141 25.9409 18.3237 25.9412 18.4279 25.9137C18.5322 25.8862 18.6275 25.8318 18.7044 25.756L23.9722 27.1758C24.1828 27.2314 24.3996 27.2594 24.6174 27.2591C25.7316 27.2585 26.7081 26.5096 27.0026 25.4298C27.0371 25.3048 27.0603 25.1771 27.0728 25.0482L34.6279 23.0127C34.6818 22.999 34.7403 22.985 34.7953 22.9759C35.4123 22.8959 35.9924 23.2878 36.1519 23.8916C36.1798 23.9968 36.1936 24.1053 36.1927 24.2142C36.1932 24.4883 36.1036 24.7549 35.9379 24.9726C35.7721 25.1903 35.5395 25.347 35.2761 25.4184V25.4186Z" fill="#CD882D"/>
<path d="M19.8247 9.85031H25.9814C26.1447 9.85031 26.3013 9.79842 26.4167 9.70605C26.5322 9.61368 26.597 9.4884 26.597 9.35777C26.597 9.22714 26.5322 9.10186 26.4167 9.0095C26.3013 8.91713 26.1447 8.86523 25.9814 8.86523H19.8247C19.6614 8.86523 19.5048 8.91713 19.3893 9.0095C19.2738 9.10186 19.209 9.22714 19.209 9.35777C19.209 9.4884 19.2738 9.61368 19.3893 9.70605C19.5048 9.79842 19.6614 9.85031 19.8247 9.85031Z" fill="#CD882D"/>
</svg>
