<svg width="46" height="51" viewBox="0 0 46 51" fill="none" xmlns="http://www.w3.org/2000/svg">
<path d="M44.0541 0.173828H15.6961C14.7493 0.173828 13.9787 0.944361 13.9787 1.89123V20.7198L4.99993 10.7236C4.73925 10.4334 4.38082 10.2621 3.99133 10.2414C3.6007 10.2203 3.22732 10.3525 2.93712 10.6132L0.918402 12.4265C0.319226 12.9647 0.269774 13.8901 0.807997 14.4893L13.4911 28.6088C13.6295 28.7629 13.7955 28.8821 13.9787 28.9645V40.3259H11.1178C10.7111 40.3259 10.3818 40.6556 10.3818 41.0619C10.3818 41.4683 10.7111 41.7979 11.1178 41.7979H31.4093C31.5446 41.7979 31.6546 41.908 31.6546 42.0433V43.5564C31.6546 45.7407 32.6805 47.69 34.2752 48.9478H8.19553C5.22227 48.9478 2.80333 46.5292 2.80333 43.556V42.0433C2.80333 41.908 2.91335 41.7979 3.04868 41.7979H7.91262C8.31897 41.7979 8.64865 41.4683 8.64865 41.0619C8.64865 40.6556 8.31897 40.3259 7.91262 40.3259H3.04868C2.1018 40.3259 1.33127 41.0964 1.33127 42.0433V43.556C1.33127 47.3408 4.41072 50.4199 8.19553 50.4199H38.9072C42.692 50.4199 45.7715 47.3408 45.7715 43.556V23.5267C45.7715 23.1204 45.4422 22.7907 45.0354 22.7907C44.6287 22.7907 44.2994 23.1204 44.2994 23.5267V43.556C44.2994 46.5292 41.8805 48.9482 38.9072 48.9482H38.5181C35.5448 48.9482 33.1263 46.5296 33.1263 43.5564V42.0437C33.1263 41.0964 32.3558 40.3263 31.4089 40.3263H15.4508V29.497L17.5508 30.5409C17.7176 30.6237 17.8962 30.6643 18.0733 30.6643C18.3554 30.6643 18.6334 30.5616 18.8542 30.3634C19.2134 30.0406 19.3372 29.5396 19.1697 29.0864L18.0411 26.0342C18.0476 25.989 18.0526 25.9437 18.0549 25.8977C18.076 25.5083 17.9437 25.1337 17.6831 24.8435L15.4508 22.3587V1.89123C15.4508 1.75591 15.5608 1.64589 15.6961 1.64589H44.0541C44.1894 1.64589 44.2994 1.75591 44.2994 1.89123V11.4895C44.2994 11.8963 44.6287 12.2256 45.0354 12.2256C45.4422 12.2256 45.7715 11.8963 45.7715 11.4895V1.89123C45.7715 0.944361 45.0009 0.173828 44.0541 0.173828V0.173828ZM3.91236 11.7157L4.7864 12.689L2.78493 14.4873L1.91051 13.514L3.91236 11.7157ZM3.76822 15.5826L4.22173 15.1751L15.0318 27.2096L14.5787 27.6171L3.76822 15.5826ZM16.1382 28.1948L16.988 27.4311L17.5259 28.8844L16.1382 28.1948ZM16.127 26.2259L5.31696 14.1914L5.77008 13.7843L16.5802 25.8188L16.127 26.2259Z" fill="#CD882D"/>
<path d="M45.0353 13.959C44.629 13.959 44.2993 14.2883 44.2993 14.695V20.3214C44.2993 20.7282 44.629 21.0575 45.0353 21.0575C45.4421 21.0575 45.7714 20.7282 45.7714 20.3214V14.695C45.7714 14.2883 45.4421 13.959 45.0353 13.959Z" fill="#CD882D"/>
<path d="M21.404 14.9541C20.0155 14.9541 18.8857 16.0838 18.8857 17.4727C18.8857 18.8612 20.0155 19.9909 21.404 19.9909C22.7928 19.9909 23.9226 18.8612 23.9226 17.4727C23.9226 16.0838 22.7928 14.9541 21.404 14.9541ZM21.404 18.5189C20.827 18.5189 20.3578 18.0496 20.3578 17.4727C20.3578 16.8958 20.827 16.4262 21.404 16.4262C21.9809 16.4262 22.4505 16.8958 22.4505 17.4727C22.4505 18.0496 21.9809 18.5189 21.404 18.5189Z" fill="#CD882D"/>
<path d="M26.1374 18.3666H29.744C30.1503 18.3666 30.48 18.0369 30.48 17.6306C30.48 17.2242 30.1503 16.8945 29.744 16.8945H26.1374C25.731 16.8945 25.4014 17.2242 25.4014 17.6306C25.4014 18.0369 25.731 18.3666 26.1374 18.3666Z" fill="#CD882D"/>
<path d="M38.7093 18.6582H26.1374C25.731 18.6582 25.4014 18.9875 25.4014 19.3942C25.4014 19.8006 25.731 20.1303 26.1374 20.1303H38.7093C39.1157 20.1303 39.4454 19.8006 39.4454 19.3942C39.4454 18.9875 39.1157 18.6582 38.7093 18.6582Z" fill="#CD882D"/>
<path d="M26.1409 16.2875H26.1458C26.5522 16.2848 26.8796 15.9532 26.8773 15.5469C26.8746 15.1417 26.5453 14.8154 26.1412 14.8154C26.1397 14.8154 26.1382 14.8154 26.1363 14.8154H26.129C25.7222 14.8177 25.3987 15.1493 25.4014 15.5561C25.4037 15.9609 25.7364 16.2875 26.1409 16.2875Z" fill="#CD882D"/>
<path d="M21.404 22.7275C20.0155 22.7275 18.8857 23.8573 18.8857 25.2461C18.8857 26.6346 20.0155 27.7644 21.404 27.7644C22.7928 27.7644 23.9226 26.6346 23.9226 25.2461C23.9226 23.8573 22.7928 22.7275 21.404 22.7275ZM21.404 26.2923C20.827 26.2923 20.3578 25.8231 20.3578 25.2458C20.3578 24.6688 20.827 24.1996 21.404 24.1996C21.9809 24.1996 22.4505 24.6688 22.4505 25.2458C22.4505 25.8231 21.9809 26.2923 21.404 26.2923Z" fill="#CD882D"/>
<path d="M26.1374 26.142H29.744C30.1503 26.142 30.48 25.8123 30.48 25.406C30.48 24.9996 30.1503 24.6699 29.744 24.6699H26.1374C25.731 24.6699 25.4014 24.9996 25.4014 25.406C25.4014 25.8123 25.731 26.142 26.1374 26.142Z" fill="#CD882D"/>
<path d="M38.7093 26.4336H26.1374C25.731 26.4336 25.4014 26.7629 25.4014 27.1696C25.4014 27.576 25.731 27.9057 26.1374 27.9057H38.7093C39.1157 27.9057 39.4454 27.576 39.4454 27.1696C39.4454 26.7629 39.1157 26.4336 38.7093 26.4336Z" fill="#CD882D"/>
<path d="M26.1409 24.0609H26.1458C26.5522 24.0586 26.8796 23.727 26.8773 23.3203C26.8746 22.9155 26.5453 22.5889 26.1412 22.5889C26.1397 22.5889 26.1382 22.5889 26.1363 22.5889H26.129C25.7222 22.5916 25.3987 22.9231 25.4014 23.3295C25.4037 23.7347 25.7364 24.0609 26.1409 24.0609Z" fill="#CD882D"/>
<path d="M21.404 30.5039C20.0155 30.5039 18.8857 31.6336 18.8857 33.0225C18.8857 34.411 20.0155 35.5407 21.404 35.5407C22.7928 35.5407 23.9226 34.411 23.9226 33.0225C23.9226 31.6336 22.7928 30.5039 21.404 30.5039ZM21.404 34.0687C20.827 34.0687 20.3578 33.5995 20.3578 33.0225C20.3578 32.4456 20.827 31.976 21.404 31.976C21.9809 31.976 22.4505 32.4456 22.4505 33.0225C22.4505 33.5995 21.9809 34.0687 21.404 34.0687Z" fill="#CD882D"/>
<path d="M26.1374 33.9164H29.744C30.1503 33.9164 30.48 33.5867 30.48 33.1804C30.48 32.774 30.1503 32.4443 29.744 32.4443H26.1374C25.731 32.4443 25.4014 32.774 25.4014 33.1804C25.4014 33.5867 25.731 33.9164 26.1374 33.9164Z" fill="#CD882D"/>
<path d="M26.1374 35.6801H38.7093C39.1157 35.6801 39.4454 35.3504 39.4454 34.944C39.4454 34.5373 39.1157 34.208 38.7093 34.208H26.1374C25.731 34.208 25.4014 34.5373 25.4014 34.944C25.4014 35.3504 25.731 35.6801 26.1374 35.6801Z" fill="#CD882D"/>
<path d="M26.1409 31.8363H26.1458C26.5522 31.8336 26.8796 31.502 26.8773 31.0957C26.8746 30.6905 26.5453 30.3643 26.1412 30.3643C26.1397 30.3643 26.1382 30.3643 26.1363 30.3643H26.129C25.7222 30.3666 25.3987 30.6982 25.4014 31.1049C25.4037 31.5097 25.7364 31.8363 26.1409 31.8363Z" fill="#CD882D"/>
<path d="M40.5463 9.81908V5.55048C40.5463 5.14375 40.2167 4.81445 39.8103 4.81445H19.9401C19.5334 4.81445 19.2041 5.14375 19.2041 5.55048V9.81908C19.2041 10.2258 19.5334 10.5551 19.9401 10.5551H39.8103C40.2167 10.5551 40.5463 10.2258 40.5463 9.81908ZM39.0743 9.08305H20.6762V6.28652H39.0743V9.08305Z" fill="#CD882D"/>
</svg>
