<svg width="31" height="34" viewBox="0 0 31 34" fill="none" xmlns="http://www.w3.org/2000/svg">
<path d="M29.4575 0.335938H10.6316C10.003 0.335938 9.49151 0.847468 9.49151 1.47606V13.9757L3.53078 7.33958C3.35773 7.14692 3.11978 7.03317 2.86121 7.01942C2.60188 7.00543 2.35401 7.09323 2.16136 7.26628L0.821199 8.47003C0.423427 8.82734 0.390597 9.44169 0.747905 9.83946L9.16779 19.2129C9.25967 19.3152 9.36986 19.3944 9.49151 19.4491V26.9915H7.59223C7.32221 26.9915 7.1036 27.2104 7.1036 27.4801C7.1036 27.7499 7.32221 27.9688 7.59223 27.9688H21.063C21.1529 27.9688 21.2259 28.0418 21.2259 28.1316V29.1361C21.2259 30.5862 21.9069 31.8803 22.9656 32.7153H5.65223C3.67839 32.7153 2.07254 31.1097 2.07254 29.1359V28.1316C2.07254 28.0418 2.14558 27.9688 2.23541 27.9688H5.46442C5.73418 27.9688 5.95304 27.7499 5.95304 27.4801C5.95304 27.2104 5.73418 26.9915 5.46442 26.9915H2.23541C1.60682 26.9915 1.09529 27.503 1.09529 28.1316V29.1359C1.09529 31.6485 3.13963 33.6925 5.65223 33.6925H26.0407C28.5533 33.6925 30.5976 31.6485 30.5976 29.1359V15.8391C30.5976 15.5694 30.379 15.3505 30.109 15.3505C29.839 15.3505 29.6204 15.5694 29.6204 15.8391V29.1359C29.6204 31.1097 28.0145 32.7155 26.0407 32.7155H25.7823C23.8085 32.7155 22.2029 31.11 22.2029 29.1361V28.1319C22.2029 27.503 21.6914 26.9918 21.0628 26.9918H10.4688V19.8026L11.8629 20.4956C11.9736 20.5505 12.0922 20.5775 12.2097 20.5775C12.3971 20.5775 12.5816 20.5093 12.7281 20.3777C12.9666 20.1635 13.0488 19.8308 12.9376 19.53L12.1884 17.5038C12.1927 17.4737 12.196 17.4437 12.1975 17.4132C12.2115 17.1546 12.1237 16.906 11.9507 16.7133L10.4688 15.0637V1.47606C10.4688 1.38623 10.5418 1.31319 10.6316 1.31319H29.4575C29.5473 1.31319 29.6204 1.38623 29.6204 1.47606V7.84805C29.6204 8.11807 29.839 8.33668 30.109 8.33668C30.379 8.33668 30.5976 8.11807 30.5976 7.84805V1.47606C30.5976 0.847468 30.0861 0.335938 29.4575 0.335938V0.335938ZM2.80879 7.9982L3.38903 8.64436L2.06032 9.83819L1.47983 9.19203L2.80879 7.9982ZM2.7131 10.5653L3.01416 10.2947L10.1906 18.284L9.88979 18.5546L2.7131 10.5653ZM10.9251 18.9381L11.4893 18.4311L11.8463 19.3959L10.9251 18.9381ZM10.9177 17.631L3.74125 9.64172L4.04206 9.37145L11.2185 17.3607L10.9177 17.631Z" fill="#CD882D"/>
<path d="M30.1087 9.48828C29.839 9.48828 29.6201 9.70689 29.6201 9.97691V13.7121C29.6201 13.9821 29.839 14.2007 30.1087 14.2007C30.3788 14.2007 30.5974 13.9821 30.5974 13.7121V9.97691C30.5974 9.70689 30.3788 9.48828 30.1087 9.48828Z" fill="#CD882D"/>
<path d="M14.4208 10.1484C13.499 10.1484 12.749 10.8984 12.749 11.8205C12.749 12.7422 13.499 13.4922 14.4208 13.4922C15.3428 13.4922 16.0928 12.7422 16.0928 11.8205C16.0928 10.8984 15.3428 10.1484 14.4208 10.1484ZM14.4208 12.515C14.0378 12.515 13.7263 12.2035 13.7263 11.8205C13.7263 11.4374 14.0378 11.1257 14.4208 11.1257C14.8038 11.1257 15.1156 11.4374 15.1156 11.8205C15.1156 12.2035 14.8038 12.515 14.4208 12.515Z" fill="#CD882D"/>
<path d="M17.5633 12.4128H19.9576C20.2274 12.4128 20.4462 12.1939 20.4462 11.9242C20.4462 11.6544 20.2274 11.4355 19.9576 11.4355H17.5633C17.2936 11.4355 17.0747 11.6544 17.0747 11.9242C17.0747 12.1939 17.2936 12.4128 17.5633 12.4128Z" fill="#CD882D"/>
<path d="M25.9094 12.6074H17.5633C17.2936 12.6074 17.0747 12.826 17.0747 13.096C17.0747 13.3658 17.2936 13.5847 17.5633 13.5847H25.9094C26.1792 13.5847 26.398 13.3658 26.398 13.096C26.398 12.826 26.1792 12.6074 25.9094 12.6074Z" fill="#CD882D"/>
<path d="M17.5656 11.0339H17.5689C17.8387 11.0321 18.056 10.812 18.0545 10.5422C18.0527 10.2732 17.8341 10.0566 17.5659 10.0566C17.5649 10.0566 17.5639 10.0566 17.5626 10.0566H17.5577C17.2877 10.0582 17.0729 10.2783 17.0747 10.5483C17.0762 10.8171 17.2971 11.0339 17.5656 11.0339Z" fill="#CD882D"/>
<path d="M14.4208 15.3086C13.499 15.3086 12.749 16.0586 12.749 16.9806C12.749 17.9024 13.499 18.6524 14.4208 18.6524C15.3428 18.6524 16.0928 17.9024 16.0928 16.9806C16.0928 16.0586 15.3428 15.3086 14.4208 15.3086ZM14.4208 17.6751C14.0378 17.6751 13.7263 17.3636 13.7263 16.9804C13.7263 16.5973 14.0378 16.2858 14.4208 16.2858C14.8038 16.2858 15.1156 16.5973 15.1156 16.9804C15.1156 17.3636 14.8038 17.6751 14.4208 17.6751Z" fill="#CD882D"/>
<path d="M17.5633 17.5749H19.9576C20.2274 17.5749 20.4462 17.356 20.4462 17.0863C20.4462 16.8165 20.2274 16.5977 19.9576 16.5977H17.5633C17.2936 16.5977 17.0747 16.8165 17.0747 17.0863C17.0747 17.356 17.2936 17.5749 17.5633 17.5749Z" fill="#CD882D"/>
<path d="M25.9094 17.7695H17.5633C17.2936 17.7695 17.0747 17.9881 17.0747 18.2582C17.0747 18.5279 17.2936 18.7468 17.5633 18.7468H25.9094C26.1792 18.7468 26.398 18.5279 26.398 18.2582C26.398 17.9881 26.1792 17.7695 25.9094 17.7695Z" fill="#CD882D"/>
<path d="M17.5656 16.1941H17.5689C17.8387 16.1925 18.056 15.9724 18.0545 15.7024C18.0527 15.4336 17.8341 15.2168 17.5659 15.2168C17.5649 15.2168 17.5639 15.2168 17.5626 15.2168H17.5577C17.2877 15.2186 17.0729 15.4387 17.0747 15.7085C17.0762 15.9775 17.2971 16.1941 17.5656 16.1941Z" fill="#CD882D"/>
<path d="M14.4208 20.4707C13.499 20.4707 12.749 21.2207 12.749 22.1427C12.749 23.0645 13.499 23.8145 14.4208 23.8145C15.3428 23.8145 16.0928 23.0645 16.0928 22.1427C16.0928 21.2207 15.3428 20.4707 14.4208 20.4707ZM14.4208 22.8372C14.0378 22.8372 13.7263 22.5257 13.7263 22.1427C13.7263 21.7597 14.0378 21.448 14.4208 21.448C14.8038 21.448 15.1156 21.7597 15.1156 22.1427C15.1156 22.5257 14.8038 22.8372 14.4208 22.8372Z" fill="#CD882D"/>
<path d="M17.5633 22.7351H19.9576C20.2274 22.7351 20.4462 22.5162 20.4462 22.2464C20.4462 21.9767 20.2274 21.7578 19.9576 21.7578H17.5633C17.2936 21.7578 17.0747 21.9767 17.0747 22.2464C17.0747 22.5162 17.2936 22.7351 17.5633 22.7351Z" fill="#CD882D"/>
<path d="M17.5633 23.9069H25.9094C26.1792 23.9069 26.398 23.6881 26.398 23.4183C26.398 23.1483 26.1792 22.9297 25.9094 22.9297H17.5633C17.2936 22.9297 17.0747 23.1483 17.0747 23.4183C17.0747 23.6881 17.2936 23.9069 17.5633 23.9069Z" fill="#CD882D"/>
<path d="M17.5656 21.3562H17.5689C17.8387 21.3544 18.056 21.1342 18.0545 20.8645C18.0527 20.5955 17.8341 20.3789 17.5659 20.3789C17.5649 20.3789 17.5639 20.3789 17.5626 20.3789H17.5577C17.2877 20.3804 17.0729 20.6006 17.0747 20.8706C17.0762 21.1393 17.2971 21.3562 17.5656 21.3562Z" fill="#CD882D"/>
<path d="M27.1288 6.73842V3.90464C27.1288 3.63462 26.91 3.41602 26.6402 3.41602H13.4491C13.1791 3.41602 12.9604 3.63462 12.9604 3.90464V6.73842C12.9604 7.00843 13.1791 7.22704 13.4491 7.22704H26.6402C26.91 7.22704 27.1288 7.00843 27.1288 6.73842ZM26.1516 6.24979H13.9377V4.39327H26.1516V6.24979Z" fill="#CD882D"/>
</svg>
