<svg width="33" height="33" viewBox="0 0 33 33" fill="none" xmlns="http://www.w3.org/2000/svg">
<path d="M33 13.8387H31.804L30.0214 14.7767C29.8208 14.666 29.612 14.5721 29.387 14.5157L27.1446 13.9546V13.6997C28.1366 13.0073 28.7419 11.8636 28.7419 10.6452V9.71478C28.7419 7.64709 27.1217 5.91671 25.1305 5.85637C25.0294 5.85377 24.9298 5.85743 24.8298 5.86236L25.4111 4.50131L22.5926 1.6836L20.9312 2.76501C20.3026 2.41068 19.6337 2.1332 18.9388 1.93855L18.5284 0H14.4721L14.0617 1.93908C13.3669 2.13362 12.6979 2.41108 12.0694 2.76548L10.4079 1.68406L7.59166 4.50031L8.16318 5.86236C8.14135 5.86136 8.1206 5.85743 8.09877 5.8569C7.0795 5.82729 6.11944 6.19921 5.39018 6.90711C4.65985 7.61462 4.25806 8.56403 4.25806 9.58065V10.6452C4.25806 11.8636 4.86284 13.0068 5.85484 13.6991V13.9546L4.39219 14.3203L1.74102 12.7742H0V23.8032L5.23629 25.5484H6.25609L6.38344 25.1024L7.98853 26.0658C8.01481 26.9386 8.71466 27.6408 9.58663 27.6714C9.61724 28.5397 10.3152 29.2376 11.1834 29.2682C11.214 30.1365 11.9119 30.8344 12.7802 30.865C12.8119 31.7536 13.5396 32.4677 14.4354 32.4677C14.7681 32.4677 15.0942 32.364 15.3684 32.1793L15.8399 32.5956C16.1358 32.8562 16.5166 33 16.9109 33H17.0094C17.8951 33 18.6158 32.284 18.627 31.4012C19.5031 31.39 20.2126 30.6805 20.2237 29.8044C21.1004 29.7932 21.8103 29.0826 21.8205 28.206C22.7052 28.1853 23.4194 27.4625 23.4194 26.5729C23.4194 26.5194 23.4167 26.4666 23.4113 26.4133L33 21.6193V13.8387ZM27.6774 9.71478V10.6452C27.6774 11.5899 27.167 12.4725 26.3452 12.9483L26.0791 13.1022L26.0811 14.7865L28.7404 15.4508L22.8871 18.5316V17.0978C22.8871 16.3822 22.5981 15.7271 22.1248 15.2429L23.9516 14.7865V13.1009L23.686 12.9473C22.8647 12.4725 22.3548 11.5899 22.3548 10.6452V9.58065C22.3548 8.85478 22.6418 8.17595 23.1633 7.6705C23.6844 7.16519 24.3758 6.89288 25.0985 6.92089C26.5204 6.96353 27.6774 8.21693 27.6774 9.71478ZM17.3025 18.1131L14.8931 17.3431C13.7951 16.9911 12.6065 16.9387 11.4825 17.1877L11.1774 17.2553V17.0977C11.1774 16.3639 11.6751 15.7266 12.3867 15.5483L15.4355 14.7865V13.1009L15.1699 12.9473C14.3486 12.4725 13.8387 11.5899 13.8387 10.6452V9.58065C13.8387 8.85478 14.1257 8.17595 14.6472 7.6705C15.1683 7.16519 15.8641 6.89288 16.5824 6.92089C18.0042 6.96353 19.1613 8.21693 19.1613 9.71478V10.6452C19.1613 11.5899 18.6509 12.4725 17.8291 12.9483L17.563 13.1022L17.565 14.7865L20.6133 15.5483C20.9589 15.6346 21.2656 15.8339 21.4848 16.1147C21.7039 16.3955 21.8228 16.7415 21.8226 17.0977V19.0921L21.691 19.1613H21.3649L18.0926 18.2262C17.8348 18.1532 17.5692 18.1233 17.3025 18.1131ZM11.2967 7.96617C12.2962 6.02949 14.3081 4.79032 16.5 4.79032C18.6711 4.79032 20.6744 6.01285 21.6815 7.92333C21.4241 8.43786 21.2901 9.00532 21.2903 9.58065V10.6452C21.2903 11.8635 21.8951 13.0068 22.8871 13.6991V13.9546L20.7581 14.4877L18.6285 13.9546V13.6997C19.6205 13.0073 20.2258 11.8635 20.2258 10.6452V9.71478C20.2258 7.64702 18.6056 5.91671 16.6144 5.85637C15.5956 5.8265 14.635 6.19868 13.9058 6.90665C13.176 7.61455 12.7742 8.56397 12.7742 9.58065V10.6452C12.7742 11.8635 13.379 13.0068 14.371 13.6991V13.9546L12.2419 14.4877L10.1124 13.9546V13.6997C11.1044 13.0073 11.7097 11.8635 11.7097 10.6452V9.71478C11.7097 9.08844 11.5589 8.49377 11.2967 7.96617V7.96617ZM8.84879 4.74721L10.5493 3.04671L12.046 4.02074L12.3324 3.8451C13.05 3.40532 13.8255 3.0833 14.6371 2.88923L14.9646 2.81072L15.3349 1.06452H17.6656L18.0349 2.81019L18.3624 2.88843C19.1741 3.08284 19.9496 3.40485 20.667 3.84457L20.9535 4.02021L22.4502 3.04618L24.1485 4.74508L23.5448 6.15863C23.1339 6.3354 22.7529 6.5841 22.4213 6.90558C22.3995 6.92687 22.3807 6.94976 22.3594 6.97158C21.1056 4.97828 18.8886 3.72581 16.5 3.72581C14.0942 3.72581 11.8711 4.98992 10.6202 7.00358C10.2855 6.65323 9.88729 6.3694 9.44605 6.17113L8.84879 4.74721ZM6.91936 14.7865V13.1009L6.65376 12.9473C5.83248 12.4725 5.32258 11.5899 5.32258 10.6452V9.58065C5.32258 8.85478 5.60953 8.17595 6.13108 7.6705C6.65216 7.16519 7.34503 6.89288 8.06624 6.92089C9.4881 6.96353 10.6452 8.21693 10.6452 9.71478V10.6452C10.6452 11.5899 10.1347 12.4725 9.31299 12.9483L9.04686 13.1022L9.04885 14.7865L10.8752 15.2429C10.4019 15.727 10.1129 16.3822 10.1129 17.0977V17.4919L8.45272 17.861L8.49584 17.7102L8.51613 16.7265L5.70907 15.089L6.91936 14.7865ZM1.06452 13.8387H1.45253L5.28047 16.0715L3.34897 23.7972L1.06452 23.0355V13.8387ZM5.40887 24.4839L4.36126 24.1348L6.23767 16.63L7.45161 17.3378V17.4899L5.45358 24.4839H5.40887ZM9.04839 26.0162C9.04876 25.858 9.11152 25.7063 9.22303 25.5941L10.1587 24.6585C10.2709 24.547 10.4225 24.4843 10.5806 24.4839C10.9097 24.4839 11.1774 24.7515 11.1774 25.0806C11.177 25.2388 11.1142 25.3905 11.0027 25.5027L10.0671 26.4383C9.9549 26.5497 9.80331 26.6125 9.64518 26.6129C9.31611 26.6129 9.04845 26.3452 9.04845 26.0162H9.04839ZM10.6452 27.613C10.6455 27.4548 10.7083 27.3031 10.8198 27.1909L11.7555 26.2553C11.8676 26.1438 12.0192 26.0811 12.1774 26.0806C12.5065 26.0806 12.7741 26.3483 12.7741 26.6774C12.7738 26.8356 12.711 26.9872 12.5995 27.0995L11.6638 28.035C11.5517 28.1465 11.4001 28.2093 11.242 28.2097C10.9129 28.2097 10.6452 27.942 10.6452 27.613H10.6452ZM12.2419 29.2097C12.2423 29.0515 12.3051 28.8999 12.4166 28.7876L13.3522 27.8521C13.4644 27.7406 13.616 27.6778 13.7742 27.6774C14.1032 27.6774 14.3709 27.9451 14.3709 28.2741C14.3705 28.4323 14.3078 28.584 14.1963 28.6962L13.2606 29.6318C13.1484 29.7433 12.9969 29.806 12.8387 29.8065C12.5097 29.8065 12.242 29.5388 12.242 29.2097H12.2419ZM14.4354 31.4032C14.1064 31.4032 13.8387 31.1356 13.8387 30.8065C13.8391 30.6483 13.9018 30.4966 14.0134 30.3844L14.949 29.4488C15.0612 29.3374 15.2128 29.2746 15.3709 29.2742C15.7 29.2742 15.9677 29.5419 15.9677 29.8709C15.9673 30.0291 15.9045 30.1808 15.793 30.293L14.8574 31.2286C14.7452 31.34 14.5936 31.4028 14.4355 31.4032H14.4354ZM17.0094 31.9355H16.9109C16.7758 31.9356 16.6453 31.8861 16.5442 31.7964L16.146 31.4453L16.5457 31.0456C16.6884 30.9029 16.7992 30.7332 16.881 30.551L17.3649 30.9539C17.4275 31.0059 17.4778 31.0711 17.5123 31.1448C17.5468 31.2185 17.5646 31.299 17.5645 31.3803C17.5645 31.6865 17.3156 31.9355 17.0094 31.9355V31.9355ZM21.7825 27.1452H21.6906C21.5567 27.1451 21.4271 27.098 21.3244 27.0121L18.438 24.6068L17.7561 25.425L20.559 27.7603C20.6214 27.8125 20.6716 27.8777 20.706 27.9514C20.7404 28.0251 20.7582 28.1055 20.7581 28.1868C20.7581 28.493 20.5091 28.7419 20.2029 28.7419H20.0868C19.957 28.7418 19.8314 28.6962 19.7317 28.613L16.8407 26.2041L16.1588 27.0222L18.9617 29.3579C19.0243 29.4097 19.0747 29.4748 19.1092 29.5484C19.1437 29.622 19.1615 29.7023 19.1613 29.7836C19.1613 30.0897 18.9123 30.3387 18.6061 30.3387C18.4019 30.3387 18.2028 30.2662 18.0461 30.136L16.8581 29.1458C16.5964 28.6109 16.0587 28.238 15.429 28.2157C15.3983 27.3474 14.7005 26.6495 13.8323 26.6189C13.8015 25.7506 13.1037 25.0527 12.2355 25.0221C12.2042 24.1335 11.4765 23.4194 10.5807 23.4194C10.1433 23.4194 9.71524 23.5966 9.406 23.9059L8.47042 24.8415C8.41453 24.8974 8.36823 24.9608 8.32119 25.0236L6.68623 24.0426L8.11953 19.0262L11.7128 18.2272C12.6554 18.0165 13.6492 18.0622 14.5685 18.3564L15.3526 18.6072L12.6944 19.9363C12.087 20.2406 11.7097 20.8516 11.7097 21.531V21.6362C11.7097 22.6194 12.5096 23.4194 13.4927 23.4194C13.8158 23.4194 14.1337 23.3315 14.41 23.1649L16.3919 21.9764C16.79 21.7379 17.3244 21.7901 17.6682 22.0994L22.1654 26.1466C22.2249 26.2006 22.2725 26.2663 22.3052 26.3397C22.3378 26.4131 22.3547 26.4925 22.3548 26.5729C22.3548 26.8887 22.0984 27.1452 21.7825 27.1452V27.1452ZM31.9355 20.9613L22.9685 25.4452C22.9393 25.4143 22.9087 25.3846 22.877 25.3563L18.3806 21.309C17.9874 20.9539 17.4763 20.7576 16.9464 20.7581C16.558 20.7582 16.1768 20.8638 15.8437 21.0637L13.861 22.2526C13.7498 22.3196 13.6225 22.355 13.4927 22.3548C13.0962 22.3548 12.7742 22.0328 12.7742 21.6363V21.531C12.7742 21.2569 12.9266 21.011 13.1713 20.8885L16.1403 19.404C16.6484 19.1496 17.2516 19.0926 17.7992 19.2502L21.144 20.2056L21.9541 20.2258L31.9355 14.9724V20.9613Z" fill="#CD882D"/>
</svg>
