<svg width="35" height="33" viewBox="0 0 35 33" fill="none" xmlns="http://www.w3.org/2000/svg">
<path d="M33.1049 0H8.95429C8.14293 0.000945636 7.48544 0.658433 7.4845 1.46979V8.13112L6.38013 6.47457C5.87462 5.71205 4.858 5.48327 4.0746 5.95582L1.80251 7.32186C1.05843 7.75847 0.512595 8.46648 0.279698 9.29715C-0.549152 12.3151 0.06585 17.5147 7.69781 25.1478C13.7671 31.2108 18.2923 32.8438 21.4111 32.8438C22.1332 32.8471 22.8525 32.7532 23.5496 32.5648C24.3799 32.3319 25.0879 31.7868 25.5254 31.0437L26.8897 28.7693C27.3603 27.9865 27.1318 26.972 26.3709 26.4666L20.9304 22.8399C20.1841 22.3463 19.1838 22.5086 18.6318 23.2129L17.0478 25.2492C16.8823 25.4671 16.582 25.5306 16.3423 25.3985L16.0409 25.2325C15.0489 24.6918 13.8143 24.0186 11.3209 21.5252C11.0511 21.2554 10.8067 21.003 10.5773 20.7614H33.1049C33.9142 20.762 34.5715 20.1079 34.5747 19.2985V1.46979C34.5737 0.658433 33.9162 0.000945636 33.1049 0ZM15.4893 26.2447L15.7821 26.4055C16.5182 26.8171 17.4447 26.6261 17.958 25.9571L19.5419 23.9207C19.722 23.6914 20.0478 23.6385 20.2912 23.7991L25.7317 27.4257C25.9788 27.5905 26.0531 27.9202 25.9006 28.175L24.5363 30.4495C24.2514 30.938 23.7885 31.2974 23.2446 31.4524C20.52 32.2017 15.7516 31.5677 8.51443 24.33C1.27728 17.0923 0.645659 12.3243 1.39318 9.60205C1.54807 9.05824 1.90721 8.59542 2.39549 8.31038L4.66995 6.94549C4.9248 6.79324 5.25435 6.86748 5.41923 7.11436L9.04757 12.5549C9.20846 12.7982 9.15557 13.1243 8.92592 13.3042L6.88895 14.8886C6.22005 15.4018 6.02903 16.3281 6.44052 17.0639L6.60188 17.3567C7.17825 18.4138 7.8947 19.7291 10.5063 22.3402C13.1181 24.9513 14.4328 25.6683 15.4893 26.2447ZM33.4219 19.2986C33.4201 19.472 33.2783 19.6111 33.105 19.6099H9.53754C8.78894 18.7538 8.1434 17.8129 7.61412 16.8063L7.44809 16.5037C7.3157 16.2646 7.37906 15.9646 7.59683 15.7993L9.63379 14.2149C10.3383 13.663 10.5006 12.6625 10.0067 11.9162L8.63723 9.86082V1.46979C8.63628 1.38542 8.66938 1.30423 8.72902 1.24459C8.78867 1.18495 8.86986 1.15185 8.95422 1.1528H33.1049C33.1893 1.15185 33.2704 1.18495 33.3301 1.24459C33.3897 1.30423 33.4228 1.38542 33.4219 1.46979V19.2986H33.4219Z" fill="#CD882D"/>
<path d="M31.1198 2.66897L21.4866 9.97468C21.214 10.1727 20.845 10.1727 20.5724 9.97468L10.9428 2.66897C10.6891 2.47653 10.3274 2.52625 10.135 2.77995C9.9426 3.03365 9.99231 3.39535 10.246 3.58772L19.8768 10.8928C20.562 11.399 21.4972 11.399 22.1824 10.8928L31.8161 3.58772C31.938 3.49532 32.0182 3.3582 32.0389 3.20663C32.0597 3.05506 32.0193 2.90146 31.9267 2.77968C31.7344 2.52645 31.3733 2.47694 31.1198 2.66897Z" fill="#CD882D"/>
<path d="M16.1106 10.9392L10.2061 17.2622C9.989 17.495 10.0018 17.8599 10.2346 18.0769C10.4674 18.294 10.8322 18.2813 11.0493 18.0484L16.9539 11.7226C17.149 11.4873 17.1263 11.1406 16.9024 10.9325C16.6784 10.7244 16.331 10.7273 16.1106 10.9392Z" fill="#CD882D"/>
<path d="M25.9866 10.9392C25.7695 10.7064 25.4048 10.6936 25.1719 10.9107C24.939 11.1278 24.9262 11.4925 25.1434 11.7254L31.0462 18.0484C31.2633 18.2813 31.628 18.2941 31.8609 18.0769C32.0937 17.8598 32.1066 17.4951 31.8894 17.2622L25.9866 10.9392Z" fill="#CD882D"/>
</svg>
