<svg width="31" height="31" viewBox="0 0 31 31" fill="none" xmlns="http://www.w3.org/2000/svg">
<path d="M30.9488 9.68449C30.4963 4.70394 26.9711 1.09044 22.5593 1.09044C19.6201 1.09044 16.9289 2.67213 15.4145 5.20712C13.9139 2.63934 11.333 1.08984 8.44094 1.08984C4.02974 1.08984 0.503882 4.70334 0.0519714 9.6839C0.0162001 9.90389 -0.130462 11.0617 0.315487 12.9498C0.958177 15.6732 2.44269 18.1504 4.60745 20.1118L15.4074 29.9126L26.3928 20.1124C28.5575 18.1504 30.042 15.6738 30.6847 12.9498C31.1307 11.0623 30.984 9.90449 30.9488 9.68449ZM29.5239 12.6768C28.9373 15.1641 27.5774 17.4302 25.5951 19.2259L15.4145 28.3088L5.40872 19.2283C3.42282 17.429 2.06351 15.1635 1.47626 12.6762C1.05416 10.8894 1.22765 9.88004 1.22825 9.87349L1.23719 9.81327C1.62472 5.44977 4.65395 2.28222 8.44094 2.28222C11.2353 2.28222 13.6951 3.99924 14.8625 6.76258L15.4116 8.06405L15.9607 6.76258C17.1095 4.04157 19.6994 2.28282 22.5599 2.28282C26.3463 2.28282 29.3761 5.45037 29.7714 9.87051C29.7725 9.88004 29.946 10.89 29.5239 12.6768Z" fill="#CD882D"/>
</svg>
