<svg width="18" height="18" viewBox="0 0 18 18" fill="none" xmlns="http://www.w3.org/2000/svg">
<g clip-path="url(#clip0)">
<path d="M17.5277 13.8864L13.8844 11.4567C13.4221 11.1509 12.8023 11.2515 12.4605 11.688L11.3993 13.0525C11.2629 13.2323 11.015 13.2845 10.8176 13.1749L10.6158 13.0636C9.94657 12.6988 9.11391 12.2447 7.43626 10.5665C5.75861 8.88822 5.30358 8.05492 4.93881 7.38695L4.82812 7.18508C4.71701 6.98781 4.76819 6.73883 4.94809 6.60136L6.31167 5.54043C6.74797 5.19859 6.84875 4.57901 6.54325 4.11653L4.11361 0.473268C3.80052 0.00231438 3.17237 -0.139063 2.68767 0.152304L1.16419 1.06746C0.685504 1.34888 0.33431 1.80465 0.184251 2.33926C-0.364352 4.33816 0.0483563 7.78795 5.13021 12.8704C9.17272 16.9126 12.1822 17.9996 14.2507 17.9996C14.7267 18.0017 15.2009 17.9397 15.6605 17.8155C16.1952 17.6656 16.651 17.3144 16.9323 16.8355L17.8483 15.313C18.1401 14.8282 17.9988 14.1996 17.5277 13.8864ZM17.3315 15.0052L16.4175 16.5287C16.2156 16.8743 15.8877 17.1284 15.5027 17.2378C13.6573 17.7444 10.4334 17.3248 5.55463 12.446C0.675838 7.5672 0.25624 4.34357 0.762872 2.49797C0.872402 2.11243 1.12683 1.78416 1.47285 1.5819L2.99633 0.667934C3.20664 0.541391 3.47927 0.602729 3.61513 0.807097L4.93495 2.7886L6.0427 4.45005C6.17536 4.65065 6.13177 4.91952 5.94252 5.06797L4.57862 6.12889C4.16356 6.44627 4.04503 7.02054 4.30058 7.4763L4.40888 7.67308C4.79223 8.37617 5.26885 9.25083 7.00889 10.9906C8.74894 12.7303 9.62332 13.207 10.3261 13.5903L10.5232 13.6989C10.9789 13.9544 11.5532 13.8359 11.8706 13.4208L12.9315 12.0569C13.08 11.8678 13.3487 11.8242 13.5494 11.9568L17.1924 14.3864C17.3969 14.5222 17.4582 14.7949 17.3315 15.0052Z" fill="black"/>
<path d="M10.1994 3.00125C13.0143 3.00438 15.2954 5.28558 15.2986 8.10051C15.2986 8.26617 15.4329 8.40045 15.5986 8.40045C15.7642 8.40045 15.8985 8.26617 15.8985 8.10051C15.895 4.95439 13.3455 2.40481 10.1994 2.40137C10.0337 2.40137 9.89941 2.53564 9.89941 2.70131C9.89941 2.86698 10.0337 3.00125 10.1994 3.00125Z" fill="black"/>
<path d="M10.1994 4.80106C12.0207 4.8032 13.4967 6.2792 13.4989 8.10058C13.4989 8.26625 13.6332 8.40053 13.7988 8.40053C13.9645 8.40053 14.0988 8.26625 14.0988 8.10058C14.0963 5.948 12.3519 4.20363 10.1994 4.20117C10.0337 4.20117 9.89941 4.33545 9.89941 4.50112C9.89941 4.66678 10.0337 4.80106 10.1994 4.80106Z" fill="black"/>
<path d="M10.1994 6.60086C11.0272 6.60185 11.6981 7.27274 11.6991 8.10065C11.6991 8.26632 11.8335 8.4006 11.9991 8.4006C12.1647 8.4006 12.299 8.26632 12.299 8.10065C12.2977 6.94158 11.3584 6.00228 10.1994 6.00098C10.0337 6.00098 9.89941 6.13525 9.89941 6.30092C9.89941 6.46659 10.0337 6.60086 10.1994 6.60086Z" fill="black"/>
</g>
<defs>
<clipPath id="clip0">
<rect width="18" height="18" fill="white"/>
</clipPath>
</defs>
</svg>
