<svg width="18" height="18" viewBox="0 0 18 18" fill="none" xmlns="http://www.w3.org/2000/svg">
<path d="M14.5738 12.4854C14.5024 12.4854 14.431 12.4592 14.3752 12.4064L11.0355 9.27332C10.9188 9.1642 10.913 8.98021 11.0227 8.86354C11.1324 8.74572 11.3153 8.74049 11.4331 8.85077L14.7728 11.9839C14.8895 12.093 14.8953 12.277 14.7856 12.3937C14.7281 12.4546 14.6515 12.4854 14.5738 12.4854Z" fill="black"/>
<path d="M3.42575 12.4857C3.34856 12.4857 3.27136 12.4549 3.2139 12.394C3.1042 12.2773 3.11 12.0933 3.22667 11.9842L6.56757 8.85109C6.68481 8.74197 6.86881 8.74661 6.97792 8.86386C7.08762 8.98052 7.08182 9.16452 6.96516 9.27363L3.62426 12.4067C3.56854 12.4596 3.49714 12.4857 3.42575 12.4857Z" fill="black"/>
<path d="M16.5489 15.3981H1.45105C0.651232 15.3981 0 14.7474 0 13.947V4.05261C0 3.25221 0.651232 2.60156 1.45105 2.60156H16.5489C17.3488 2.60156 18 3.25221 18 4.05261V13.947C18 14.7474 17.3488 15.3981 16.5489 15.3981ZM1.45105 3.18198C0.971043 3.18198 0.58042 3.57261 0.58042 4.05261V13.947C0.58042 14.4271 0.971043 14.8177 1.45105 14.8177H16.5489C17.029 14.8177 17.4196 14.4271 17.4196 13.947V4.05261C17.4196 3.57261 17.029 3.18198 16.5489 3.18198H1.45105Z" fill="black"/>
<path d="M9.00017 10.4586C8.61419 10.4586 8.22821 10.3303 7.93452 10.0743L0.481918 3.57302C0.36119 3.46797 0.348421 3.28456 0.453477 3.16325C0.559694 3.04252 0.742526 3.03149 0.863254 3.13539L8.31585 9.6361C8.68674 9.95939 9.3136 9.95939 9.6839 9.6361L17.1272 3.14583C17.2474 3.04078 17.4302 3.05239 17.537 3.1737C17.642 3.295 17.6299 3.47784 17.5091 3.58347L10.0658 10.0737C9.77155 10.3303 9.38615 10.4586 9.00017 10.4586Z" fill="black"/>
</svg>
