<svg width="33" height="33" viewBox="0 0 33 33" fill="none" xmlns="http://www.w3.org/2000/svg">
<path d="M32.7085 7.28136L16.7242 0.0480482C16.6543 0.0164241 16.5777 0 16.5 0C16.4224 0 16.3458 0.0164241 16.2758 0.0480482L0.29147 7.28136C0.204134 7.32089 0.130459 7.3827 0.0789031 7.4597C0.0273469 7.5367 -6.09786e-07 7.62577 0 7.71668V25.2833C-6.09786e-07 25.3742 0.0273469 25.4633 0.0789031 25.5403C0.130459 25.6173 0.204134 25.6791 0.29147 25.7186L16.2758 32.9519C16.3457 32.9836 16.4224 33 16.5 33C16.5776 33 16.6543 32.9836 16.7242 32.9519L32.7085 25.7186C32.7959 25.6791 32.8695 25.6173 32.9211 25.5403C32.9727 25.4633 33 25.3742 33 25.2833V7.71674C33 7.62583 32.9727 7.53675 32.9211 7.45974C32.8695 7.38273 32.7959 7.32091 32.7085 7.28136V7.28136ZM16.5 1.02019L31.2981 7.71668L27.0085 9.65788C26.9813 9.63797 26.952 9.6207 26.9211 9.60632L12.2235 2.9554L16.5 1.02019ZM11.0589 3.50196L25.8355 10.1887L22.8091 11.5583L8.03857 4.87423L11.0589 3.50196ZM26.1812 11.1058V16.1683L23.3543 17.4476V12.385L26.1812 11.1058ZM31.9686 24.98L17.0157 31.7464V15.2534L20.5824 13.6393C20.6434 13.6117 20.698 13.5731 20.7431 13.5258C20.7882 13.4784 20.8228 13.4232 20.8451 13.3632C20.8674 13.3033 20.8769 13.2398 20.8731 13.1764C20.8692 13.1131 20.8521 13.051 20.8226 12.9938C20.7932 12.9367 20.752 12.8855 20.7015 12.8433C20.6509 12.801 20.592 12.7685 20.528 12.7476C20.4641 12.7267 20.3964 12.7178 20.3288 12.7214C20.2612 12.725 20.195 12.7411 20.134 12.7687L16.5 14.4132L15.0701 13.7661C15.0091 13.7385 14.9429 13.7224 14.8753 13.7188C14.8077 13.7152 14.74 13.724 14.676 13.7449C14.6121 13.7659 14.5531 13.7984 14.5026 13.8406C14.4521 13.8829 14.4109 13.9341 14.3815 13.9913C14.352 14.0484 14.3349 14.1105 14.331 14.1738C14.3271 14.2372 14.3366 14.3007 14.3589 14.3606C14.3812 14.4206 14.4159 14.4758 14.461 14.5232C14.5061 14.5706 14.5607 14.6092 14.6216 14.6368L15.9843 15.2534V31.7464L1.03139 24.9799V8.48683L12.4179 13.6395C12.4877 13.6712 12.5642 13.6877 12.6417 13.6877C12.7586 13.6879 12.872 13.6508 12.9635 13.5826C13.0549 13.5144 13.1189 13.4191 13.145 13.3123C13.1711 13.2055 13.1578 13.0936 13.1071 12.9949C13.0565 12.8961 12.9716 12.8165 12.8663 12.7689L1.70186 7.71668L6.82476 5.39843L22.3158 12.4085C22.3181 12.4115 22.3206 12.4142 22.3229 12.4171V18.2178C22.323 18.2996 22.3452 18.3801 22.3874 18.4517C22.4297 18.5232 22.4906 18.5836 22.5646 18.6271C22.6385 18.6706 22.723 18.6958 22.8101 18.7003C22.8973 18.7049 22.9842 18.6886 23.0629 18.6531L26.9211 16.9071C27.0085 16.8676 27.0822 16.8058 27.1337 16.7288C27.1853 16.6518 27.2126 16.5627 27.2126 16.4718V10.6391L31.9686 8.48689V24.98V24.98Z" fill="#CD882D"/>
<path d="M5.28779 23.1057L2.94207 22.0442C2.8189 21.9884 2.67716 21.9808 2.54802 22.0231C2.41887 22.0653 2.31291 22.1539 2.25345 22.2693C2.19398 22.3848 2.18587 22.5176 2.23092 22.6387C2.27596 22.7597 2.37046 22.8591 2.49362 22.9148L4.83934 23.9763C4.9091 24.008 4.98562 24.0245 5.06315 24.0245C5.16021 24.0246 5.25531 23.9989 5.33752 23.9506C5.41973 23.9022 5.48572 23.8331 5.52789 23.7512C5.55735 23.694 5.57451 23.632 5.57838 23.5686C5.58226 23.5052 5.57278 23.4417 5.55048 23.3818C5.52819 23.3218 5.49351 23.2666 5.44844 23.2192C5.40336 23.1718 5.34877 23.1333 5.28779 23.1057V23.1057Z" fill="#CD882D"/>
<path d="M7.44575 21.7872L2.94443 19.7503C2.82156 19.6966 2.68109 19.6905 2.55343 19.7332C2.42576 19.7759 2.32115 19.8639 2.26222 19.9784C2.2033 20.0928 2.19479 20.2244 2.23855 20.3446C2.28231 20.4649 2.37482 20.5641 2.49606 20.621L6.99737 22.6579C7.06714 22.6896 7.14366 22.7061 7.22118 22.7062C7.33807 22.7063 7.45156 22.6693 7.54303 22.601C7.6345 22.5328 7.69854 22.4375 7.72464 22.3307C7.75074 22.2239 7.73736 22.1119 7.68669 22.0132C7.63601 21.9145 7.55106 21.8348 7.44575 21.7872Z" fill="#CD882D"/>
</svg>
