<svg width="30" height="30" viewBox="0 0 30 30" fill="none" xmlns="http://www.w3.org/2000/svg">
<circle cx="15.0667" cy="14.8411" r="14.219" stroke="#CD882D" stroke-width="0.5"/>
<g clip-path="url(#clip0)">
<path d="M12.3081 10.5782C12.4483 10.5782 12.5621 10.4644 12.5621 10.3243C12.5621 10.1841 12.4483 10.0703 12.3081 10.0703C12.168 10.0703 12.0542 10.1841 12.0542 10.3243C12.0542 10.4644 12.168 10.5782 12.3081 10.5782Z" fill="#CD882D"/>
<path d="M10.6294 14.2911C10.7696 14.2911 10.8834 14.1773 10.8834 14.0372C10.8834 13.897 10.7696 13.7832 10.6294 13.7832C10.4893 13.7832 10.3755 13.897 10.3755 14.0372C10.3755 14.1773 10.4893 14.2911 10.6294 14.2911Z" fill="#CD882D"/>
<path d="M20.0913 12.766H19.837V12.2574C19.837 12.0072 19.7469 11.7708 19.5826 11.5849V10.9857C19.5826 10.5649 19.2404 10.2227 18.8196 10.2227C18.3988 10.2227 18.0566 10.5649 18.0566 10.9857V11.5852C17.8928 11.7708 17.8024 12.0098 17.8022 12.2574V19.2771C17.8022 20.5463 18.5292 21.33 18.5653 21.3966V21.8205C18.5653 21.961 18.6791 22.0748 18.8196 22.0748C18.9601 22.0748 19.0739 21.961 19.0739 21.8205V21.3966C19.1099 21.3301 19.837 20.5531 19.837 19.2771V13.2747H20.0913C20.2316 13.2747 20.3456 13.3888 20.3456 13.5291V15.5638C20.3456 15.7042 20.4595 15.8181 20.6 15.8181C20.7404 15.8181 20.8543 15.7042 20.8543 15.5638V13.5291C20.8543 13.1083 20.512 12.766 20.0913 12.766ZM18.3109 12.2574C18.3109 11.9781 18.5384 11.7487 18.8196 11.7487C19.0935 11.7487 19.3283 11.9702 19.3283 12.2574V12.766H18.3109V12.2574ZM18.8196 10.7313C18.9599 10.7313 19.0739 10.8454 19.0739 10.9857V11.2726C18.9909 11.251 18.9054 11.2401 18.8196 11.24C18.733 11.24 18.6476 11.2512 18.5653 11.2725V10.9857C18.5653 10.8454 18.6793 10.7313 18.8196 10.7313ZM18.8196 20.8856C18.5397 20.4869 18.3676 20.0158 18.3227 19.5311H19.3164C19.2716 20.0158 19.0995 20.4869 18.8196 20.8856V20.8856ZM19.3283 19.0228H18.3109V13.2747H19.3283V19.0228Z" fill="#CD882D"/>
<path d="M16.0217 22.0749C16.4425 22.0749 16.7847 21.7326 16.7847 21.3118V11.8505C16.7847 11.4297 16.4425 11.0874 16.0217 11.0874H14.7063C14.6013 10.7914 14.3185 10.5788 13.987 10.5788H13.5534C13.5712 10.4951 13.5801 10.4099 13.5801 10.3244C13.5801 9.62322 13.0096 9.05273 12.3084 9.05273C11.6072 9.05273 11.0367 9.62322 11.0367 10.3244C11.0367 10.4099 11.0456 10.4951 11.0633 10.5788H10.6298C10.2982 10.5788 10.0155 10.7914 9.91046 11.0874H8.59505C8.17429 11.0874 7.83203 11.4297 7.83203 11.8505V21.3118C7.83203 21.7326 8.17429 22.0749 8.59505 22.0749H16.0217ZM15.2587 19.3826V20.5488H14.0924L15.2587 19.3826ZM13.7327 20.1891V19.0228H14.899L13.7327 20.1891ZM15.2587 18.5141H13.4783C13.3379 18.5141 13.224 18.628 13.224 18.7685V20.5488H9.35806V12.6135H15.2587V18.5141ZM10.6298 11.0874H11.4324C11.5235 11.0874 11.6076 11.0388 11.653 10.9599C11.6752 10.9211 11.6869 10.8771 11.6868 10.8324C11.6867 10.7877 11.6748 10.7438 11.6523 10.7051C11.5813 10.5833 11.5454 10.4552 11.5454 10.3244C11.5454 9.90367 11.8876 9.56141 12.3084 9.56141C12.7291 9.56141 13.0714 9.90367 13.0714 10.3244C13.0714 10.4552 13.0354 10.5833 12.9645 10.7051C12.942 10.7438 12.9301 10.7877 12.93 10.8324C12.9298 10.8771 12.9415 10.9211 12.9638 10.9599C12.9861 10.9986 13.0182 11.0309 13.0569 11.0533C13.0957 11.0757 13.1396 11.0875 13.1843 11.0874H13.987C14.1273 11.0874 14.2414 11.2015 14.2414 11.3418V12.1048H10.3754V11.3418C10.3754 11.2015 10.4895 11.0874 10.6298 11.0874ZM8.34071 21.3118V11.8505C8.34071 11.7102 8.45475 11.5961 8.59505 11.5961H9.86674V12.1048H9.10372C8.96325 12.1048 8.84938 12.2187 8.84938 12.3591V20.8032C8.84938 20.9436 8.96325 21.0575 9.10372 21.0575H15.513C15.6535 21.0575 15.7674 20.9436 15.7674 20.8032V12.3591C15.7674 12.2187 15.6535 12.1048 15.513 12.1048H14.75V11.5961H16.0217C16.162 11.5961 16.2761 11.7102 16.2761 11.8505V21.3118C16.2761 21.4521 16.162 21.5662 16.0217 21.5662H8.59505C8.45475 21.5662 8.34071 21.4521 8.34071 21.3118Z" fill="#CD882D"/>
<path d="M13.9868 13.7832H11.6469C11.5064 13.7832 11.3926 13.8971 11.3926 14.0375C11.3926 14.178 11.5064 14.2919 11.6469 14.2919H13.9868C14.1273 14.2919 14.2412 14.178 14.2412 14.0375C14.2412 13.8971 14.1273 13.7832 13.9868 13.7832Z" fill="#CD882D"/>
<path d="M13.9871 16.4795H10.6298C10.4894 16.4795 10.3755 16.5934 10.3755 16.7338C10.3755 16.8743 10.4894 16.9882 10.6298 16.9882H13.9871C14.1276 16.9882 14.2414 16.8743 14.2414 16.7338C14.2414 16.5934 14.1276 16.4795 13.9871 16.4795Z" fill="#CD882D"/>
<path d="M13.9871 17.4971H10.6298C10.4894 17.4971 10.3755 17.6109 10.3755 17.7514C10.3755 17.8919 10.4894 18.0057 10.6298 18.0057H13.9871C14.1276 18.0057 14.2414 17.8919 14.2414 17.7514C14.2414 17.6109 14.1276 17.4971 13.9871 17.4971Z" fill="#CD882D"/>
<path d="M13.9871 15.4619H10.6298C10.4894 15.4619 10.3755 15.5758 10.3755 15.7163C10.3755 15.8567 10.4894 15.9706 10.6298 15.9706H13.9871C14.1276 15.9706 14.2414 15.8567 14.2414 15.7163C14.2414 15.5758 14.1276 15.4619 13.9871 15.4619Z" fill="#CD882D"/>
</g>
<defs>
<clipPath id="clip0">
<rect width="13.0221" height="13.0221" fill="white" transform="translate(7.83203 9.05273)"/>
</clipPath>
</defs>
</svg>
