<svg width="70" height="71" viewBox="0 0 70 71" fill="none" xmlns="http://www.w3.org/2000/svg">
<circle cx="35.0043" cy="35.4077" r="33.2788" fill="white"/>
<path d="M35.0092 0.703125C15.8283 0.703125 0.278809 16.2526 0.278809 35.4335C0.278809 54.6144 15.8283 70.1639 35.0092 70.1639C36.0554 70.1639 37.0979 70.117 38.1352 70.0236C39.0996 69.9373 40.0555 69.805 41.0039 69.6393L41.3686 69.5749C59.0034 66.2838 71.2308 50.104 69.5812 32.2403C67.9318 14.3765 52.9489 0.708769 35.0092 0.703125ZM32.219 67.7258H32.137C31.2391 67.6453 30.3449 67.5271 29.457 67.3714C29.4063 67.3624 29.3554 67.3568 29.3056 67.3471C28.441 67.1916 27.5831 67.0009 26.7341 66.7755L26.5289 66.7231C25.7014 66.4976 24.8832 66.2392 24.0762 65.9486C23.9926 65.9187 23.9083 65.8922 23.8247 65.8611C23.0339 65.5705 22.2572 65.2449 21.4924 64.8927C21.3975 64.8503 21.3024 64.8096 21.2075 64.7643C20.4573 64.4173 19.7219 64.0261 19.0007 63.6146C18.8989 63.557 18.796 63.4993 18.6943 63.4422C17.9831 63.0259 17.2879 62.583 16.61 62.1144C16.5073 62.0426 16.4031 61.973 16.3009 61.9012C15.6304 61.4245 14.9782 60.9226 14.3456 60.3965L14.171 60.2439V50.4833C14.1795 43.4536 19.8757 37.7574 26.9054 37.7489H43.1129C50.1427 37.7574 55.8389 43.4536 55.8474 50.4833V60.245L55.6936 60.3734C55.0497 60.9111 54.3847 61.4229 53.6999 61.9074C53.6095 61.9708 53.5179 62.0313 53.428 62.0934C52.7403 62.5709 52.0343 63.0216 51.3116 63.4444C51.2212 63.4971 51.1286 63.5467 51.0387 63.5988C50.3065 64.0154 49.5621 64.4088 48.8029 64.7633C48.716 64.8038 48.6283 64.8419 48.5401 64.8791C47.7698 65.2355 46.9855 65.561 46.1892 65.8548C46.11 65.8842 46.0303 65.9097 45.9574 65.9373C45.1468 66.2279 44.3249 66.4907 43.4928 66.7163L43.2932 66.7661C42.4432 66.9917 41.5845 67.1829 40.719 67.3391C40.6692 67.3483 40.6196 67.3545 40.5698 67.3623C39.6809 67.5184 38.7858 67.6371 37.8869 67.718H37.805C36.8791 67.7976 35.9527 67.8406 35.015 67.8406C34.0771 67.8406 33.1431 67.8055 32.219 67.7258V67.7258ZM58.1628 58.0987V50.4833C58.1532 42.1755 51.4207 35.443 43.1129 35.4335H26.9054C18.5976 35.443 11.8652 42.1755 11.8556 50.4833V58.0975C-0.613183 45.3716 -0.474116 24.9681 12.1664 12.4128C24.8071 -0.141981 45.2112 -0.141981 57.8519 12.4128C70.4925 24.9681 70.6316 45.3716 58.1628 58.0977V58.0987Z" fill="#CD882D"/>
<path d="M35.0094 9.96387C28.6155 9.96387 23.4326 15.1468 23.4326 21.5407C23.4326 27.9345 28.6155 33.1175 35.0094 33.1175C41.4033 33.1175 46.5862 27.9345 46.5862 21.5407C46.5794 15.1497 41.4004 9.97067 35.0094 9.96387ZM35.0094 30.8021C29.8942 30.8021 25.748 26.6559 25.748 21.5407C25.748 16.4255 29.8942 12.2792 35.0094 12.2792C40.1246 12.2792 44.2708 16.4255 44.2708 21.5407C44.2651 26.653 40.1217 30.7963 35.0094 30.8021Z" fill="#CD882D"/>
</svg>
