<svg width="29" height="30" viewBox="0 0 29 30" fill="none" xmlns="http://www.w3.org/2000/svg">
<path d="M20.2719 18.4826C20.2276 18.3214 20.1376 18.1766 20.0126 18.0657C19.8876 17.9548 19.7331 17.8826 19.5679 17.8578V12.9094H19.9991C20.0563 12.9094 20.1111 12.8867 20.1516 12.8463C20.192 12.8059 20.2147 12.751 20.2147 12.6938V10.5379C20.2147 10.4187 20.1182 10.3223 19.9991 10.3223H10.5128C10.3937 10.3223 10.2972 10.4187 10.2972 10.5379V12.6938C10.2972 12.751 10.3199 12.8059 10.3603 12.8463C10.4008 12.8867 10.4556 12.9094 10.5128 12.9094H10.944V17.2214H10.7284C10.1933 17.2201 9.66918 17.3735 9.21919 17.6631V16.5746C9.21919 16.4555 9.12266 16.359 9.00359 16.359H7.49441C7.37534 16.359 7.27881 16.4555 7.27881 16.5746V21.5334C7.27881 21.5906 7.30152 21.6454 7.34196 21.6858C7.38239 21.7263 7.43723 21.749 7.49441 21.749H9.00359C9.06077 21.749 9.11561 21.7263 9.15605 21.6858C9.19648 21.6454 9.21919 21.5906 9.21919 21.5334V20.445C9.66925 20.7344 10.1933 20.8877 10.7284 20.8866H14.2685C14.5137 20.8862 14.7579 20.854 14.9949 20.7908L19.6628 19.5403C20.1221 19.4152 20.3942 18.9427 20.2719 18.4826V18.4826ZM10.7284 10.7535H19.7835V12.4783H10.7284V10.7535ZM11.3752 12.9094H19.1367V17.8948L16.6345 18.5658C16.5836 18.4446 16.5059 18.3365 16.4071 18.2498C16.3083 18.163 16.191 18.0999 16.0642 18.0652L13.1593 17.286C12.9957 17.243 12.8272 17.2212 12.6581 17.2214H11.3752V12.9094ZM8.788 21.3178H7.71001V16.7902H8.788V21.3178ZM19.5509 19.1238L14.8838 20.3742C14.6831 20.4278 14.4762 20.4551 14.2685 20.4554H10.7284C10.215 20.4566 9.71538 20.29 9.30543 19.981L9.21919 19.9164V18.1916L9.30543 18.1269C9.71535 17.8178 10.215 17.6513 10.7284 17.6526H12.658C12.7898 17.6525 12.9211 17.6695 13.0485 17.7032L15.9525 18.4817C16.0364 18.5048 16.1115 18.5526 16.1679 18.6187C16.2244 18.6849 16.2597 18.7666 16.2693 18.853C16.2716 18.8619 16.2745 18.8706 16.2779 18.8791C16.2754 18.8884 16.2735 18.8978 16.2722 18.9073C16.2725 18.9424 16.2677 18.9774 16.258 19.011C16.2334 19.1025 16.1793 19.1832 16.1042 19.2408C16.0291 19.2985 15.9371 19.3298 15.8424 19.3299C15.8045 19.3302 15.7667 19.3254 15.7301 19.3157L13.8975 18.8243C13.8606 18.8133 13.8214 18.8124 13.784 18.8217C13.7467 18.831 13.7124 18.8502 13.685 18.8771C13.6485 18.8684 13.6104 18.8694 13.5744 18.8799C13.5384 18.8904 13.5058 18.9101 13.4797 18.9371C13.4537 18.9641 13.4351 18.9974 13.4259 19.0338C13.4167 19.0701 13.4171 19.1083 13.4272 19.1444C13.4372 19.1805 13.4565 19.2134 13.4831 19.2398C13.5097 19.2662 13.5428 19.2852 13.579 19.295C13.6152 19.3047 13.6533 19.3048 13.6896 19.2952C13.7259 19.2857 13.759 19.2669 13.7858 19.2406L15.6184 19.7323C15.6916 19.7515 15.7671 19.7612 15.8428 19.7611C16.2304 19.7609 16.5702 19.5016 16.6726 19.1277C16.6846 19.0844 16.6927 19.0402 16.697 18.9956L19.3254 18.2907C19.3441 18.286 19.3644 18.2812 19.3836 18.278C19.5982 18.2503 19.8 18.386 19.8555 18.5951C19.8652 18.6315 19.87 18.6691 19.8697 18.7068C19.8699 18.8017 19.8387 18.894 19.7811 18.9694C19.7234 19.0448 19.6425 19.099 19.5509 19.1238V19.1238Z" fill="#CD882D"/>
<path d="M14.178 13.772H16.334C16.3912 13.772 16.446 13.7493 16.4865 13.7089C16.5269 13.6684 16.5496 13.6136 16.5496 13.5564C16.5496 13.4992 16.5269 13.4444 16.4865 13.404C16.446 13.3635 16.3912 13.3408 16.334 13.3408H14.178C14.1208 13.3408 14.066 13.3635 14.0255 13.404C13.9851 13.4444 13.9624 13.4992 13.9624 13.5564C13.9624 13.6136 13.9851 13.6684 14.0255 13.7089C14.066 13.7493 14.1208 13.772 14.178 13.772Z" fill="#CD882D"/>
<circle cx="14.5135" cy="15.3225" r="14.219" stroke="#CD882D" stroke-width="0.5"/>
</svg>
