<svg width="30" height="30" viewBox="0 0 30 30" fill="none" xmlns="http://www.w3.org/2000/svg">
<circle cx="15.0667" cy="15.0706" r="14.219" stroke="#CD882D" stroke-width="0.5"/>
<g clip-path="url(#clip0)">
<path d="M20.8546 14.7441H20.3827L19.6792 15.1142C19.6001 15.0705 19.5177 15.0335 19.4289 15.0113L18.5441 14.7898V14.6892C18.9355 14.416 19.1744 13.9647 19.1744 13.4839V13.1167C19.1744 12.3008 18.535 11.618 17.7493 11.5942C17.7094 11.5932 17.6701 11.5946 17.6306 11.5965L17.86 11.0595L16.7478 9.94757L16.0922 10.3743C15.8441 10.2345 15.5802 10.125 15.306 10.0482L15.144 9.2832H13.5434L13.3814 10.0484C13.1072 10.1251 12.8432 10.2346 12.5952 10.3745L11.9396 9.94775L10.8283 11.0591L11.0538 11.5965C11.0452 11.5962 11.037 11.5946 11.0284 11.5944C10.6262 11.5827 10.2473 11.7295 9.95954 12.0088C9.67134 12.288 9.51279 12.6627 9.51279 13.0638V13.4839C9.51279 13.9647 9.75145 14.4158 10.1429 14.689V14.7898L9.56572 14.9341L8.51954 14.324H7.83252V18.6762L9.89881 19.3648H10.3012L10.3515 19.1889L10.9849 19.569C10.9952 19.9134 11.2714 20.1905 11.6155 20.2026C11.6276 20.5452 11.903 20.8206 12.2456 20.8327C12.2577 21.1753 12.5331 21.4508 12.8757 21.4628C12.8882 21.8135 13.1754 22.0953 13.5289 22.0953C13.6602 22.0953 13.7889 22.0544 13.897 21.9815L14.0831 22.1458C14.1999 22.2486 14.3501 22.3053 14.5057 22.3053H14.5446C14.8941 22.3053 15.1785 22.0228 15.1829 21.6744C15.5286 21.67 15.8086 21.39 15.813 21.0443C16.1589 21.0399 16.4391 20.7595 16.4431 20.4136C16.7922 20.4054 17.074 20.1202 17.074 19.7691C17.074 19.748 17.073 19.7272 17.0709 19.7062L20.8546 17.8144V14.7441ZM18.7543 13.1167V13.4839C18.7543 13.8567 18.5529 14.205 18.2286 14.3927L18.1236 14.4535L18.1244 15.1181L19.1738 15.3802L16.864 16.5959V16.0302C16.864 15.7478 16.7499 15.4893 16.5632 15.2982L17.2841 15.1181V14.4529L17.1793 14.3923C16.8552 14.205 16.654 13.8567 16.654 13.4839V13.0638C16.654 12.7774 16.7672 12.5095 16.973 12.3101C17.1786 12.1107 17.4514 12.0032 17.7366 12.0143C18.2977 12.0311 18.7543 12.5257 18.7543 13.1167ZM14.6603 16.4308L13.7095 16.127C13.2762 15.9881 12.8072 15.9674 12.3636 16.0656L12.2432 16.0923V16.0301C12.2432 15.7405 12.4396 15.4891 12.7204 15.4187L13.9235 15.1181V14.4529L13.8187 14.3923C13.4946 14.205 13.2934 13.8567 13.2934 13.4839V13.0638C13.2934 12.7774 13.4066 12.5095 13.6125 12.3101C13.8181 12.1107 14.0926 12.0032 14.3761 12.0143C14.9372 12.0311 15.3938 12.5257 15.3938 13.1167V13.4839C15.3938 13.8567 15.1923 14.205 14.8681 14.3927L14.763 14.4535L14.7638 15.1181L15.9667 15.4187C16.1031 15.4528 16.2242 15.5314 16.3106 15.6422C16.3971 15.753 16.444 15.8896 16.4439 16.0301V16.8171L16.392 16.8444H16.2633L14.972 16.4754C14.8703 16.4466 14.7655 16.4348 14.6603 16.4308ZM12.2903 12.4267C12.6847 11.6625 13.4786 11.1735 14.3436 11.1735C15.2003 11.1735 15.9908 11.6559 16.3882 12.4098C16.2867 12.6129 16.2338 12.8368 16.2339 13.0638V13.4839C16.2339 13.9647 16.4725 14.4158 16.864 14.689V14.7898L16.0239 15.0002L15.1835 14.7898V14.6892C15.575 14.416 15.8138 13.9647 15.8138 13.4839V13.1167C15.8138 12.3008 15.1745 11.618 14.3887 11.5942C13.9867 11.5824 13.6076 11.7293 13.3199 12.0086C13.0319 12.288 12.8733 12.6626 12.8733 13.0638V13.4839C12.8733 13.9647 13.112 14.4158 13.5034 14.689V14.7898L12.6633 15.0002L11.823 14.7898V14.6892C12.2144 14.416 12.4533 13.9647 12.4533 13.4839V13.1167C12.4533 12.8696 12.3938 12.6349 12.2903 12.4267V12.4267ZM11.3243 11.1565L11.9954 10.4855L12.586 10.8698L12.699 10.8005C12.9822 10.627 13.2882 10.4999 13.6085 10.4233L13.7377 10.3923L13.8838 9.70327H14.8036L14.9493 10.3921L15.0785 10.423C15.3988 10.4997 15.7048 10.6268 15.9879 10.8003L16.101 10.8696L16.6916 10.4853L17.3618 11.1557L17.1235 11.7135C16.9614 11.7832 16.811 11.8814 16.6802 12.0082C16.6716 12.0166 16.6642 12.0256 16.6558 12.0343C16.161 11.2477 15.2862 10.7534 14.3436 10.7534C13.3942 10.7534 12.517 11.2523 12.0234 12.0469C11.8913 11.9086 11.7341 11.7966 11.56 11.7184L11.3243 11.1565ZM10.563 15.1181V14.4529L10.4582 14.3923C10.1341 14.205 9.93286 13.8567 9.93286 13.4839V13.0638C9.93286 12.7774 10.0461 12.5095 10.2519 12.3101C10.4575 12.1107 10.7309 12.0032 11.0155 12.0143C11.5766 12.0311 12.0332 12.5257 12.0332 13.1167V13.4839C12.0332 13.8567 11.8318 14.205 11.5075 14.3927L11.4025 14.4535L11.4033 15.1181L12.124 15.2982C11.9372 15.4892 11.8232 15.7478 11.8232 16.0301V16.1857L11.168 16.3313L11.1851 16.2718L11.1931 15.8837L10.0854 15.2375L10.563 15.1181ZM8.25259 14.7441H8.4057L9.91624 15.6252L9.15406 18.6738L8.25259 18.3732V14.7441ZM9.96691 18.9448L9.55351 18.807L10.294 15.8456L10.773 16.1249V16.1849L9.98456 18.9448H9.96691ZM11.4031 19.5494C11.4032 19.487 11.428 19.4272 11.472 19.3829L11.8412 19.0137C11.8855 18.9697 11.9453 18.9449 12.0077 18.9448C12.1376 18.9448 12.2432 19.0504 12.2432 19.1803C12.2431 19.2427 12.2183 19.3025 12.1743 19.3468L11.8051 19.716C11.7608 19.76 11.701 19.7847 11.6386 19.7849C11.5087 19.7849 11.4031 19.6793 11.4031 19.5494H11.4031ZM12.0332 20.1795C12.0334 20.1171 12.0581 20.0573 12.1021 20.013L12.4713 19.6438C12.5156 19.5998 12.5754 19.575 12.6378 19.5749C12.7677 19.5749 12.8733 19.6805 12.8733 19.8104C12.8732 19.8728 12.8484 19.9326 12.8044 19.9769L12.4352 20.3461C12.3909 20.3901 12.3311 20.4149 12.2687 20.415C12.1389 20.415 12.0332 20.3094 12.0332 20.1795H12.0332ZM12.6633 20.8096C12.6635 20.7472 12.6882 20.6874 12.7322 20.6431L13.1014 20.2739C13.1457 20.2299 13.2055 20.2051 13.2679 20.205C13.3978 20.205 13.5034 20.3106 13.5034 20.4405C13.5033 20.5029 13.4785 20.5627 13.4345 20.607L13.0653 20.9762C13.021 21.0202 12.9612 21.045 12.8988 21.0451C12.769 21.0451 12.6633 20.9395 12.6633 20.8096H12.6633ZM13.5289 21.6752C13.399 21.6752 13.2934 21.5696 13.2934 21.4398C13.2936 21.3773 13.3183 21.3175 13.3623 21.2732L13.7315 20.904C13.7758 20.86 13.8356 20.8352 13.898 20.8351C14.0279 20.8351 14.1335 20.9407 14.1335 21.0706C14.1334 21.133 14.1086 21.1928 14.0646 21.2371L13.6954 21.6063C13.6511 21.6503 13.5913 21.6751 13.5289 21.6752H13.5289ZM14.5446 21.8853H14.5057C14.4524 21.8853 14.4009 21.8658 14.361 21.8304L14.2039 21.6918L14.3616 21.5341C14.4179 21.4778 14.4616 21.4108 14.4939 21.3389L14.6849 21.4979C14.7096 21.5184 14.7294 21.5442 14.743 21.5733C14.7567 21.6023 14.7637 21.6341 14.7637 21.6662C14.7637 21.787 14.6654 21.8853 14.5446 21.8853V21.8853ZM16.4281 19.995H16.3918C16.339 19.9949 16.2879 19.9763 16.2473 19.9424L15.1083 18.9933L14.8392 19.3161L15.9453 20.2377C15.9699 20.2583 15.9897 20.284 16.0033 20.3131C16.0169 20.3422 16.0239 20.3739 16.0239 20.406C16.0239 20.5268 15.9256 20.6251 15.8048 20.6251H15.759C15.7077 20.625 15.6582 20.607 15.6189 20.5742L14.478 19.6236L14.2089 19.9464L15.315 20.8681C15.3397 20.8886 15.3596 20.9142 15.3732 20.9433C15.3868 20.9723 15.3938 21.004 15.3938 21.0361C15.3938 21.1569 15.2955 21.2552 15.1747 21.2552C15.0941 21.2552 15.0155 21.2265 14.9537 21.1752L14.4849 20.7844C14.3816 20.5734 14.1694 20.4262 13.921 20.4174C13.9088 20.0748 13.6335 19.7994 13.2909 19.7873C13.2787 19.4447 13.0034 19.1693 12.6608 19.1572C12.6484 18.8065 12.3613 18.5247 12.0078 18.5247C11.8352 18.5247 11.6662 18.5947 11.5442 18.7167L11.175 19.0859C11.153 19.1079 11.1347 19.133 11.1161 19.1578L10.471 18.7706L11.0366 16.7911L12.4545 16.4759C12.8265 16.3927 13.2186 16.4107 13.5814 16.5268L13.8908 16.6258L12.8419 17.1502C12.6022 17.2704 12.4533 17.5115 12.4533 17.7796V17.8211C12.4533 18.2091 12.7689 18.5247 13.1569 18.5247C13.2844 18.5247 13.4098 18.4901 13.5188 18.4243L14.3009 17.9553C14.458 17.8612 14.6689 17.8818 14.8046 18.0038L16.5792 19.6009C16.6027 19.6222 16.6215 19.6482 16.6344 19.6771C16.6472 19.7061 16.6539 19.7374 16.654 19.7691C16.654 19.8937 16.5527 19.995 16.4281 19.995V19.995ZM20.4346 17.5547L16.8961 19.3241C16.8846 19.3119 16.8725 19.3002 16.86 19.2891L15.0857 17.692C14.9305 17.5518 14.7288 17.4743 14.5197 17.4745C14.3665 17.4746 14.216 17.5163 14.0846 17.5952L13.3022 18.0643C13.2583 18.0907 13.2081 18.1047 13.1569 18.1046C13.0004 18.1046 12.8733 17.9776 12.8733 17.8211V17.7795C12.8733 17.6714 12.9335 17.5743 13.0301 17.526L14.2017 16.9402C14.4021 16.8398 14.6402 16.8173 14.8562 16.8795L16.1762 17.2565L16.4958 17.2645L20.4346 15.1915V17.5547Z" fill="#CD882D"/>
</g>
<defs>
<clipPath id="clip0">
<rect width="13.0221" height="13.0221" fill="white" transform="translate(7.83252 9.2832)"/>
</clipPath>
</defs>
</svg>
