<svg width="30" height="29" viewBox="0 0 30 29" fill="none" xmlns="http://www.w3.org/2000/svg">
<circle cx="15.0667" cy="14.5218" r="14.219" stroke="#CD882D" stroke-width="0.5"/>
<g clip-path="url(#clip0)">
<path d="M20.7026 13.7066L19.2275 12.5264V9.95502C19.2275 9.73009 19.0454 9.54808 18.8205 9.54808H17.1935C16.969 9.54808 16.7866 9.73009 16.7866 9.95462L16.7862 10.5734L14.5984 8.8232C14.4498 8.70477 14.2384 8.70477 14.0898 8.8232L7.98554 13.7066C7.85081 13.8147 7.79876 13.9963 7.85598 14.1592C7.91321 14.3222 8.06702 14.4314 8.23987 14.4314H9.4607V21.3495C9.4607 21.5745 9.64271 21.7565 9.86764 21.7565H18.8205C19.0454 21.7565 19.2275 21.5745 19.2275 21.3495V14.4314H20.4483C20.6212 14.4314 20.775 14.3222 20.8322 14.1592C20.8894 13.9963 20.8374 13.8147 20.7026 13.7066V13.7066ZM17.5997 11.1763L17.6001 10.362H18.4136V11.8753L17.5397 11.1762C17.5397 11.1762 17.5997 11.1763 17.5997 11.1763V11.1763ZM13.5302 20.9426V17.687H15.158V20.9426H13.5302ZM18.8205 13.6175C18.5956 13.6175 18.4136 13.7995 18.4136 14.0245V20.9426H15.9719V17.28C15.9719 17.0551 15.7899 16.8731 15.565 16.8731H13.1233C12.8983 16.8731 12.7163 17.0551 12.7163 17.28V20.9426H10.2746V14.0245C10.2746 13.7995 10.0926 13.6175 9.86767 13.6175H9.39989L14.3441 9.66215L19.2883 13.6176C19.2883 13.6175 18.8205 13.6175 18.8205 13.6175V13.6175Z" fill="#CD882D"/>
</g>
<defs>
<clipPath id="clip0">
<rect width="13.0221" height="13.0221" fill="white" transform="translate(7.83252 8.73438)"/>
</clipPath>
</defs>
</svg>
