<svg width="30" height="30" viewBox="0 0 30 30" fill="none" xmlns="http://www.w3.org/2000/svg">
<circle cx="15.0667" cy="14.5755" r="14.219" stroke="#CD882D" stroke-width="0.5"/>
<g clip-path="url(#clip0)">
<path d="M19.7695 8.78809H10.654C10.055 8.78879 9.56951 9.27425 9.5688 9.87326V20.0739H8.04955C7.99199 20.0739 7.93679 20.0968 7.89609 20.1375C7.85539 20.1782 7.83252 20.2334 7.83252 20.291V20.725C7.83322 21.3241 8.31868 21.8095 8.9177 21.8102H18.0332C18.6322 21.8095 19.1177 21.3241 19.1184 20.725V15.606L20.4655 14.2589C20.73 13.9944 20.73 13.5654 20.4655 13.3009C20.201 13.0364 19.772 13.0364 19.5075 13.3009L19.1184 13.69V10.5244H20.6376C20.6952 10.5244 20.7504 10.5015 20.7911 10.4608C20.8318 10.4201 20.8546 10.3649 20.8546 10.3073V9.87326C20.8539 9.27425 20.3685 8.78879 19.7695 8.78809ZM8.9177 21.3761C8.5581 21.3761 8.26659 21.0846 8.26659 20.725V20.508H16.948V20.725C16.9485 20.7927 16.9553 20.8601 16.9684 20.9264C16.9723 20.9481 16.9786 20.9666 16.9836 20.9868C16.9944 21.031 17.0079 21.0745 17.024 21.117C17.0324 21.1387 17.0415 21.1591 17.0513 21.1799C17.0698 21.2195 17.0907 21.2579 17.1138 21.295C17.1251 21.3132 17.1355 21.3316 17.1483 21.349C17.1544 21.3579 17.159 21.3677 17.1655 21.3761H8.9177ZM18.6843 20.725C18.6843 21.0846 18.3928 21.3761 18.0332 21.3761C17.6736 21.3761 17.3821 21.0846 17.3821 20.725V20.291C17.3821 20.2334 17.3592 20.1782 17.3185 20.1375C17.2778 20.0968 17.2226 20.0739 17.165 20.0739H10.0029V9.87326C10.0029 9.51366 10.2944 9.22216 10.654 9.22216H18.9013C18.8948 9.23062 18.8903 9.24039 18.8842 9.24929C18.8718 9.26665 18.861 9.2851 18.8497 9.30333C18.8266 9.34038 18.8057 9.3788 18.7872 9.41836C18.7774 9.44006 18.7683 9.46003 18.7598 9.4813C18.7437 9.52383 18.7302 9.56732 18.7194 9.61152C18.7145 9.6317 18.7082 9.65124 18.7043 9.67185C18.6913 9.73822 18.6846 9.80565 18.6843 9.87326V14.1241L15.9264 16.882C15.8986 16.9098 15.8789 16.9447 15.8693 16.9829L15.6523 17.851C15.6432 17.8874 15.6437 17.9255 15.6537 17.9615C15.6637 17.9976 15.6829 18.0305 15.7094 18.057C15.7277 18.0746 15.749 18.0888 15.7723 18.0989C15.8002 18.1123 15.8306 18.1196 15.8615 18.1204H15.8628C15.8805 18.1204 15.8982 18.1182 15.9154 18.1139L16.7835 17.8968C16.8217 17.8873 16.8566 17.8676 16.8844 17.8398L18.6843 16.0401V20.725ZM19.8144 13.6078C19.8607 13.5635 19.9224 13.5388 19.9865 13.5388C20.0506 13.5388 20.1123 13.5635 20.1586 13.6078C20.2042 13.6535 20.2298 13.7154 20.2298 13.7799C20.2298 13.8444 20.2042 13.9063 20.1586 13.952L19.9865 14.1241L19.6423 13.7799L19.8144 13.6078ZM19.3354 14.0868L19.6796 14.431L16.6194 17.4912L16.1606 17.606L16.2754 17.1472L19.3354 14.0868ZM20.4206 10.0903H19.1184V9.87326C19.1184 9.51366 19.4099 9.22216 19.7695 9.22216C20.1291 9.22216 20.4206 9.51366 20.4206 9.87326V10.0903Z" fill="#CD882D"/>
<path d="M11.9561 10.0908H16.7308V10.5249H11.9561V10.0908Z" fill="#CD882D"/>
<path d="M12.671 11.0225L12.2731 11.4203C12.2427 11.403 12.2083 11.3936 12.1733 11.3929H11.0881C11.0306 11.3929 10.9754 11.4158 10.9347 11.4565C10.894 11.4972 10.8711 11.5524 10.8711 11.61V12.6951C10.8711 12.7527 10.894 12.8079 10.9347 12.8486C10.9754 12.8893 11.0306 12.9122 11.0881 12.9122H12.1733C12.2309 12.9122 12.2861 12.8893 12.3268 12.8486C12.3675 12.8079 12.3903 12.7527 12.3903 12.6951V11.9169L12.9779 11.3293L12.671 11.0225V11.0225ZM11.9563 12.4781H11.3052V11.827H11.8664L11.5858 12.1076L11.8927 12.4145L11.9563 12.3509V12.4781Z" fill="#CD882D"/>
<path d="M13.2583 11.3926H17.816V11.8266H13.2583V11.3926Z" fill="#CD882D"/>
<path d="M13.2583 12.2607H16.9479V12.6948H13.2583V12.2607Z" fill="#CD882D"/>
<path d="M12.671 13.1924L12.2731 13.5902C12.2427 13.5729 12.2083 13.5635 12.1733 13.5629H11.0881C11.0306 13.5629 10.9754 13.5857 10.9347 13.6264C10.894 13.6671 10.8711 13.7223 10.8711 13.7799V14.8651C10.8711 14.9226 10.894 14.9778 10.9347 15.0185C10.9754 15.0592 11.0306 15.0821 11.0881 15.0821H12.1733C12.2309 15.0821 12.2861 15.0592 12.3268 15.0185C12.3675 14.9778 12.3903 14.9226 12.3903 14.8651V14.0868L12.9779 13.4993L12.671 13.1924ZM11.9563 14.648H11.3052V13.9969H11.8664L11.5858 14.2776L11.8927 14.5844L11.9563 14.5209V14.648Z" fill="#CD882D"/>
<path d="M13.2583 13.5625H17.816V13.9966H13.2583V13.5625Z" fill="#CD882D"/>
<path d="M13.2583 14.4316H16.9479V14.8657H13.2583V14.4316Z" fill="#CD882D"/>
<path d="M12.671 15.3633L12.2731 15.7611C12.2427 15.7438 12.2083 15.7344 12.1733 15.7338H11.0881C11.0306 15.7338 10.9754 15.7566 10.9347 15.7973C10.894 15.838 10.8711 15.8932 10.8711 15.9508V17.036C10.8711 17.0935 10.894 17.1487 10.9347 17.1894C10.9754 17.2301 11.0306 17.253 11.0881 17.253H12.1733C12.2309 17.253 12.2861 17.2301 12.3268 17.1894C12.3675 17.1487 12.3903 17.0935 12.3903 17.036V16.2577L12.9779 15.6702L12.671 15.3633ZM11.9563 16.8189H11.3052V16.1678H11.8664L11.5858 16.4485L11.8927 16.7553L11.9563 16.6918V16.8189Z" fill="#CD882D"/>
<path d="M13.2583 15.7334H16.0798V16.1675H13.2583V15.7334Z" fill="#CD882D"/>
<path d="M13.2583 16.6016H15.2116V17.0356H13.2583V16.6016Z" fill="#CD882D"/>
<path d="M12.671 17.5332L12.2731 17.931C12.2427 17.9138 12.2083 17.9044 12.1733 17.9037H11.0881C11.0306 17.9037 10.9754 17.9265 10.9347 17.9673C10.894 18.008 10.8711 18.0632 10.8711 18.1207V19.2059C10.8711 19.2635 10.894 19.3187 10.9347 19.3594C10.9754 19.4001 11.0306 19.4229 11.0881 19.4229H12.1733C12.2309 19.4229 12.2861 19.4001 12.3268 19.3594C12.3675 19.3187 12.3903 19.2635 12.3903 19.2059V18.4276L12.9779 17.8401L12.671 17.5332ZM11.9563 18.9889H11.3052V18.3378H11.8664L11.5858 18.6184L11.8927 18.9253L11.9563 18.8617V18.9889Z" fill="#CD882D"/>
<path d="M13.2583 17.9033H15.2116V18.3374H13.2583V17.9033Z" fill="#CD882D"/>
<path d="M13.2583 18.7715H16.9479V19.2056H13.2583V18.7715Z" fill="#CD882D"/>
</g>
<defs>
<clipPath id="clip0">
<rect width="13.0221" height="13.0221" fill="white" transform="translate(7.83252 8.78809)"/>
</clipPath>
</defs>
</svg>
