<svg width="30" height="30" viewBox="0 0 30 30" fill="none" xmlns="http://www.w3.org/2000/svg">
<circle cx="15.0667" cy="15.0794" r="14.219" stroke="#CD882D" stroke-width="0.5"/>
<path d="M20.7391 12.1653L14.4316 9.31095C14.404 9.29847 14.3737 9.29199 14.3431 9.29199C14.3125 9.29199 14.2822 9.29847 14.2546 9.31095L7.94705 12.1653C7.91258 12.1809 7.88351 12.2053 7.86317 12.2357C7.84282 12.266 7.83203 12.3012 7.83203 12.3371V19.269C7.83203 19.3049 7.84282 19.3401 7.86317 19.3704C7.88351 19.4008 7.91258 19.4252 7.94705 19.4408L14.2546 22.2952C14.2822 22.3076 14.3125 22.3141 14.3431 22.3141C14.3737 22.3141 14.404 22.3076 14.4316 22.2952L20.7391 19.4408C20.7736 19.4252 20.8027 19.4008 20.823 19.3704C20.8434 19.3401 20.8542 19.3049 20.8542 19.269V12.3371C20.8542 12.3012 20.8434 12.2661 20.823 12.2357C20.8027 12.2053 20.7736 12.1809 20.7391 12.1653V12.1653ZM14.3431 9.69457L20.1826 12.3371L18.4898 13.1031C18.4791 13.0952 18.4676 13.0884 18.4554 13.0827L12.6556 10.4582L14.3431 9.69457ZM12.196 10.6739L18.027 13.3126L16.8327 13.853L11.0041 11.2154L12.196 10.6739ZM18.1634 13.6744V15.6722L17.0479 16.177V14.1792L18.1634 13.6744ZM20.4472 19.1493L14.5466 21.8194V15.3111L15.9541 14.6742C15.9781 14.6633 15.9997 14.6481 16.0175 14.6294C16.0352 14.6107 16.0489 14.5889 16.0577 14.5652C16.0665 14.5416 16.0703 14.5166 16.0688 14.4915C16.0672 14.4665 16.0605 14.442 16.0488 14.4195C16.0372 14.3969 16.021 14.3767 16.001 14.3601C15.9811 14.3434 15.9578 14.3306 15.9326 14.3223C15.9074 14.3141 15.8806 14.3106 15.854 14.312C15.8273 14.3134 15.8012 14.3198 15.7771 14.3307L14.3431 14.9796L13.7788 14.7242C13.7548 14.7133 13.7287 14.707 13.702 14.7056C13.6753 14.7041 13.6486 14.7076 13.6233 14.7159C13.5981 14.7241 13.5748 14.737 13.5549 14.7536C13.535 14.7703 13.5187 14.7905 13.5071 14.8131C13.4955 14.8356 13.4887 14.8601 13.4872 14.8851C13.4857 14.9101 13.4894 14.9352 13.4982 14.9588C13.507 14.9825 13.5207 15.0043 13.5385 15.023C13.5563 15.0417 13.5778 15.0569 13.6019 15.0678L14.1396 15.3111V21.8194L8.23903 19.1493V12.641L12.7323 14.6743C12.7598 14.6868 12.79 14.6933 12.8206 14.6933C12.8667 14.6934 12.9115 14.6787 12.9475 14.6518C12.9836 14.6249 13.0089 14.5873 13.0192 14.5452C13.0295 14.503 13.0242 14.4589 13.0042 14.4199C12.9842 14.3809 12.9507 14.3495 12.9092 14.3307L8.5036 12.3371L10.5251 11.4223L16.6381 14.1885C16.639 14.1897 16.64 14.1907 16.6409 14.1919V16.4809C16.6409 16.5132 16.6497 16.5449 16.6663 16.5732C16.683 16.6014 16.7071 16.6253 16.7362 16.6424C16.7654 16.6596 16.7987 16.6695 16.8331 16.6713C16.8675 16.6731 16.9018 16.6667 16.9329 16.6527L18.4554 15.9637C18.4898 15.9481 18.5189 15.9237 18.5393 15.8933C18.5596 15.8629 18.5704 15.8278 18.5704 15.7919V13.4903L20.4472 12.641V19.1493V19.1493Z" fill="#CD882D"/>
<path d="M9.91831 18.4095L8.99266 17.9907C8.94406 17.9687 8.88813 17.9657 8.83717 17.9823C8.78621 17.999 8.74439 18.0339 8.72093 18.0795C8.69746 18.1251 8.69426 18.1775 8.71204 18.2253C8.72981 18.273 8.7671 18.3122 8.8157 18.3342L9.74135 18.7531C9.76887 18.7656 9.79907 18.7721 9.82966 18.7721C9.86796 18.7721 9.90549 18.762 9.93793 18.7429C9.97037 18.7239 9.99641 18.6966 10.0131 18.6642C10.0247 18.6417 10.0315 18.6172 10.033 18.5922C10.0345 18.5672 10.0308 18.5421 10.022 18.5185C10.0132 18.4948 9.99949 18.473 9.9817 18.4543C9.96391 18.4356 9.94237 18.4204 9.91831 18.4095V18.4095Z" fill="#CD882D"/>
<path d="M10.7703 17.889L8.99403 17.0852C8.94555 17.064 8.89012 17.0616 8.83974 17.0785C8.78936 17.0953 8.74808 17.1301 8.72483 17.1752C8.70157 17.2204 8.69822 17.2723 8.71549 17.3198C8.73276 17.3672 8.76926 17.4064 8.8171 17.4288L10.5934 18.2326C10.6209 18.2451 10.6511 18.2516 10.6817 18.2516C10.7278 18.2517 10.7726 18.2371 10.8087 18.2102C10.8448 18.1832 10.87 18.1456 10.8803 18.1035C10.8906 18.0613 10.8854 18.0172 10.8654 17.9782C10.8454 17.9392 10.8119 17.9078 10.7703 17.889Z" fill="#CD882D"/>
</svg>
