<svg width="30" height="30" viewBox="0 0 30 30" fill="none" xmlns="http://www.w3.org/2000/svg">
<circle cx="15.0667" cy="14.8274" r="14.219" stroke="#CD882D" stroke-width="0.5"/>
<g clip-path="url(#clip0)">
<path d="M20.8542 14.5009H20.3822L19.6788 14.8711C19.5996 14.8274 19.5172 14.7903 19.4284 14.7681L18.5436 14.5467V14.4461C18.935 14.1729 19.1739 13.7215 19.1739 13.2407V12.8736C19.1739 12.0577 18.5345 11.3748 17.7488 11.351C17.7089 11.35 17.6696 11.3514 17.6301 11.3534L17.8595 10.8163L16.7473 9.7044L16.0917 10.1311C15.8436 9.99132 15.5797 9.88182 15.3055 9.80501L15.1435 9.04004H13.5429L13.3809 9.80522C13.1067 9.88198 12.8428 9.99147 12.5947 10.1313L11.9391 9.70459L10.8278 10.8159L11.0533 11.3534C11.0447 11.353 11.0365 11.3514 11.0279 11.3512C10.6257 11.3395 10.2468 11.4863 9.95905 11.7657C9.67085 12.0448 9.51231 12.4195 9.51231 12.8207V13.2407C9.51231 13.7215 9.75096 14.1726 10.1424 14.4458V14.5467L9.56523 14.691L8.51905 14.0809H7.83203V18.433L9.89832 19.1217H10.3007L10.351 18.9457L10.9844 19.3259C10.9948 19.6703 11.2709 19.9474 11.615 19.9595C11.6271 20.3021 11.9025 20.5775 12.2451 20.5896C12.2572 20.9322 12.5326 21.2076 12.8752 21.2197C12.8877 21.5703 13.1749 21.8521 13.5284 21.8521C13.6597 21.8521 13.7884 21.8112 13.8966 21.7383L14.0826 21.9026C14.1994 22.0054 14.3496 22.0622 14.5052 22.0622H14.5441C14.8936 22.0622 15.178 21.7796 15.1824 21.4312C15.5281 21.4268 15.8081 21.1469 15.8125 20.8011C16.1584 20.7967 16.4386 20.5163 16.4426 20.1704C16.7917 20.1622 17.0735 19.877 17.0735 19.5259C17.0735 19.5048 17.0725 19.484 17.0704 19.463L20.8542 17.5712V14.5009ZM18.7538 12.8736V13.2407C18.7538 13.6135 18.5524 13.9618 18.2281 14.1496L18.1231 14.2103L18.1239 14.8749L19.1733 15.1371L16.8635 16.3528V15.787C16.8635 15.5046 16.7495 15.2461 16.5627 15.055L17.2836 14.8749V14.2098L17.1788 14.1492C16.8547 13.9618 16.6535 13.6135 16.6535 13.2407V12.8207C16.6535 12.5342 16.7667 12.2663 16.9725 12.0669C17.1781 11.8675 17.4509 11.76 17.7361 11.7711C18.2972 11.7879 18.7538 12.2825 18.7538 12.8736ZM14.6598 16.1877L13.709 15.8838C13.2757 15.7449 12.8067 15.7242 12.3632 15.8225L12.2428 15.8491V15.787C12.2428 15.4974 12.4391 15.2459 12.7199 15.1755L13.923 14.8749V14.2098L13.8182 14.1492C13.4941 13.9618 13.2929 13.6135 13.2929 13.2407V12.8207C13.2929 12.5342 13.4062 12.2663 13.612 12.0669C13.8176 11.8675 14.0922 11.76 14.3756 11.7711C14.9367 11.7879 15.3933 12.2825 15.3933 12.8736V13.2407C15.3933 13.6135 15.1918 13.9618 14.8676 14.1496L14.7626 14.2103L14.7633 14.8749L15.9662 15.1756C16.1026 15.2096 16.2237 15.2883 16.3101 15.3991C16.3966 15.5099 16.4435 15.6464 16.4434 15.7869V16.574L16.3915 16.6013H16.2628L14.9715 16.2323C14.8698 16.2035 14.765 16.1917 14.6598 16.1877ZM12.2898 12.1836C12.6842 11.4193 13.4781 10.9303 14.3431 10.9303C15.1998 10.9303 15.9903 11.4128 16.3878 12.1667C16.2862 12.3697 16.2333 12.5936 16.2334 12.8207V13.2407C16.2334 13.7215 16.4721 14.1726 16.8635 14.4458V14.5467L16.0234 14.757L15.183 14.5467V14.4461C15.5745 14.1729 15.8133 13.7215 15.8133 13.2407V12.8736C15.8133 12.0576 15.174 11.3748 14.3882 11.351C13.9862 11.3392 13.6072 11.4861 13.3194 11.7655C13.0314 12.0448 12.8729 12.4195 12.8729 12.8207V13.2407C12.8729 13.7215 13.1115 14.1726 13.503 14.4458V14.5467L12.6628 14.757L11.8225 14.5467V14.4461C12.2139 14.1729 12.4528 13.7215 12.4528 13.2407V12.8736C12.4528 12.6264 12.3933 12.3918 12.2898 12.1836V12.1836ZM11.3239 10.9133L11.9949 10.2423L12.5855 10.6267L12.6985 10.5574C12.9817 10.3838 13.2877 10.2567 13.608 10.1802L13.7372 10.1492L13.8833 9.46011H14.8031L14.9488 10.149L15.078 10.1798C15.3983 10.2566 15.7043 10.3836 15.9875 10.5571L16.1005 10.6265L16.6911 10.2421L17.3613 10.9125L17.1231 11.4703C16.9609 11.5401 16.8105 11.6382 16.6797 11.765C16.6711 11.7735 16.6637 11.7825 16.6553 11.7911C16.1605 11.0045 15.2857 10.5103 14.3431 10.5103C13.3937 10.5103 12.5165 11.0091 12.0229 11.8037C11.8908 11.6655 11.7337 11.5535 11.5595 11.4752L11.3239 10.9133ZM10.5625 14.8749V14.2098L10.4577 14.1492C10.1336 13.9618 9.93237 13.6135 9.93237 13.2407V12.8207C9.93237 12.5342 10.0456 12.2663 10.2514 12.0669C10.457 11.8675 10.7305 11.76 11.015 11.7711C11.5761 11.7879 12.0327 12.2825 12.0327 12.8736V13.2407C12.0327 13.6135 11.8313 13.9618 11.507 14.1496L11.402 14.2103L11.4028 14.8749L12.1235 15.0551C11.9367 15.2461 11.8227 15.5046 11.8227 15.7869V15.9425L11.1676 16.0882L11.1846 16.0287L11.1926 15.6405L10.0849 14.9943L10.5625 14.8749ZM8.2521 14.5009H8.40521L9.91575 15.382L9.15357 18.4306L8.2521 18.1301V14.5009ZM9.96643 18.7016L9.55303 18.5639L10.2935 15.6024L10.7725 15.8817V15.9417L9.98407 18.7016H9.96643ZM11.4026 19.3063C11.4028 19.2439 11.4275 19.184 11.4715 19.1397L11.8407 18.7705C11.885 18.7265 11.9448 18.7018 12.0072 18.7016C12.1371 18.7016 12.2427 18.8072 12.2427 18.9371C12.2426 18.9995 12.2178 19.0594 12.1738 19.1036L11.8046 19.4728C11.7603 19.5168 11.7005 19.5416 11.6381 19.5418C11.5083 19.5418 11.4026 19.4361 11.4026 19.3063H11.4026ZM12.0327 19.9364C12.0329 19.874 12.0576 19.8141 12.1016 19.7698L12.4708 19.4006C12.5151 19.3566 12.5749 19.3319 12.6374 19.3317C12.7672 19.3317 12.8728 19.4373 12.8728 19.5672C12.8727 19.6296 12.8479 19.6895 12.8039 19.7337L12.4347 20.1029C12.3904 20.1469 12.3306 20.1717 12.2682 20.1719C12.1384 20.1719 12.0327 20.0662 12.0327 19.9364H12.0327ZM12.6628 20.5665C12.663 20.5041 12.6877 20.4442 12.7317 20.3999L13.101 20.0307C13.1452 19.9867 13.205 19.962 13.2675 19.9618C13.3973 19.9618 13.5029 20.0674 13.5029 20.1973C13.5028 20.2597 13.478 20.3196 13.434 20.3639L13.0648 20.733C13.0205 20.777 12.9607 20.8018 12.8983 20.802C12.7685 20.802 12.6628 20.6963 12.6628 20.5665H12.6628ZM13.5284 21.4321C13.3985 21.4321 13.2929 21.3264 13.2929 21.1966C13.2931 21.1342 13.3178 21.0743 13.3618 21.03L13.7311 20.6608C13.7753 20.6168 13.8351 20.5921 13.8976 20.5919C14.0274 20.5919 14.133 20.6975 14.133 20.8274C14.1329 20.8898 14.1081 20.9497 14.0641 20.994L13.6949 21.3631C13.6506 21.4071 13.5908 21.4319 13.5284 21.4321H13.5284ZM14.5441 21.6421H14.5052C14.4519 21.6422 14.4004 21.6226 14.3605 21.5872L14.2034 21.4487L14.3611 21.2909C14.4174 21.2346 14.4612 21.1677 14.4935 21.0958L14.6844 21.2547C14.7091 21.2753 14.7289 21.301 14.7426 21.3301C14.7562 21.3592 14.7632 21.3909 14.7632 21.423C14.7632 21.5439 14.6649 21.6421 14.5441 21.6421V21.6421ZM16.4276 19.7518H16.3913C16.3385 19.7518 16.2874 19.7332 16.2468 19.6993L15.1079 18.7501L14.8387 19.073L15.9448 19.9945C15.9694 20.0151 15.9892 20.0409 16.0028 20.0699C16.0164 20.099 16.0234 20.1307 16.0234 20.1628C16.0234 20.2836 15.9251 20.3819 15.8043 20.3819H15.7585C15.7073 20.3818 15.6577 20.3638 15.6184 20.331L14.4775 19.3804L14.2084 19.7033L15.3145 20.625C15.3392 20.6454 15.3591 20.6711 15.3727 20.7001C15.3863 20.7292 15.3933 20.7609 15.3933 20.7929C15.3933 20.9137 15.295 21.012 15.1742 21.012C15.0936 21.012 15.015 20.9834 14.9532 20.932L14.4844 20.5413C14.3811 20.3302 14.1689 20.183 13.9205 20.1742C13.9083 19.8316 13.633 19.5562 13.2904 19.5441C13.2782 19.2015 13.0029 18.9261 12.6603 18.914C12.6479 18.5634 12.3608 18.2815 12.0073 18.2815C11.8347 18.2815 11.6658 18.3515 11.5437 18.4735L11.1745 18.8427C11.1525 18.8648 11.1342 18.8898 11.1157 18.9146L10.4705 18.5275L11.0361 16.548L12.454 16.2327C12.826 16.1495 13.2181 16.1676 13.5809 16.2836L13.8903 16.3826L12.8414 16.9071C12.6017 17.0272 12.4528 17.2683 12.4528 17.5364V17.5779C12.4528 17.9659 12.7684 18.2815 13.1564 18.2815C13.2839 18.2815 13.4093 18.2469 13.5183 18.1812L14.3004 17.7121C14.4575 17.618 14.6684 17.6386 14.8041 17.7607L16.5787 19.3578C16.6022 19.379 16.621 19.405 16.6339 19.434C16.6467 19.4629 16.6534 19.4943 16.6535 19.5259C16.6535 19.6506 16.5523 19.7518 16.4276 19.7518V19.7518ZM20.4341 17.3116L16.8956 19.081C16.8841 19.0688 16.872 19.0571 16.8595 19.0459L15.0852 17.4488C14.93 17.3087 14.7283 17.2312 14.5193 17.2314C14.366 17.2314 14.2156 17.2731 14.0841 17.352L13.3017 17.8212C13.2579 17.8476 13.2076 17.8615 13.1564 17.8615C12.9999 17.8615 12.8729 17.7344 12.8729 17.5779V17.5364C12.8729 17.4282 12.933 17.3312 13.0296 17.2829L14.2012 16.697C14.4016 16.5967 14.6397 16.5742 14.8558 16.6363L16.1757 17.0134L16.4953 17.0213L20.4341 14.9483V17.3116Z" fill="#CD882D"/>
</g>
<defs>
<clipPath id="clip0">
<rect width="13.0221" height="13.0221" fill="white" transform="translate(7.83203 9.04004)"/>
</clipPath>
</defs>
</svg>
